<?xml version="1.0" standalone="no"?>
<!DOCTYPE svg PUBLIC "-//W3C//DTD SVG 1.1//EN" "http://www.w3.org/Graphics/SVG/1.1/DTD/svg11.dtd">
<svg version="1.1" width="1200" height="342" onload="init(evt)" viewBox="0 0 1200 342" xmlns="http://www.w3.org/2000/svg" xmlns:xlink="http://www.w3.org/1999/xlink">
<!-- Flame graph stack visualization. See https://github.com/brendangregg/FlameGraph for latest version, and http://www.brendangregg.com/flamegraphs.html for examples. -->
<!-- NOTES:  -->
<defs>
	<linearGradient id="background" y1="0" y2="1" x1="0" x2="0" >
		<stop stop-color="#eeeeee" offset="5%" />
		<stop stop-color="#e0e0ff" offset="95%" />
	</linearGradient>
</defs>
<style type="text/css">
	text { font-family:Verdana; font-size:12px; fill:rgb(0,0,0); }
	#search, #ignorecase { opacity:0.1; cursor:pointer; }
	#search:hover, #search.show, #ignorecase:hover, #ignorecase.show { opacity:1; }
	#subtitle { text-anchor:middle; font-color:rgb(160,160,160); }
	#title { text-anchor:middle; font-size:17px}
	#unzoom { cursor:pointer; }
	#frames > *:hover { stroke:black; stroke-width:0.5; cursor:pointer; }
	.hide { display:none; }
	.parent { opacity:0.5; }
</style>
<script type="text/ecmascript">
<![CDATA[
	"use strict";
	var details, searchbtn, unzoombtn, matchedtxt, svg, searching, currentSearchTerm, ignorecase, ignorecaseBtn;
	function init(evt) {
		details = document.getElementById("details").firstChild;
		searchbtn = document.getElementById("search");
		ignorecaseBtn = document.getElementById("ignorecase");
		unzoombtn = document.getElementById("unzoom");
		matchedtxt = document.getElementById("matched");
		svg = document.getElementsByTagName("svg")[0];
		searching = 0;
		currentSearchTerm = null;

		// use GET parameters to restore a flamegraphs state.
		var params = get_params();
		if (params.x && params.y)
			zoom(find_group(document.querySelector('[x="' + params.x + '"][y="' + params.y + '"]')));
                if (params.s) search(params.s);
	}

	// event listeners
	window.addEventListener("click", function(e) {
		var target = find_group(e.target);
		if (target) {
			if (target.nodeName == "a") {
				if (e.ctrlKey === false) return;
				e.preventDefault();
			}
			if (target.classList.contains("parent")) unzoom(true);
			zoom(target);
			if (!document.querySelector('.parent')) {
				// we have basically done a clearzoom so clear the url
				var params = get_params();
				if (params.x) delete params.x;
				if (params.y) delete params.y;
				history.replaceState(null, null, parse_params(params));
				unzoombtn.classList.add("hide");
				return;
			}

			// set parameters for zoom state
			var el = target.querySelector("rect");
			if (el && el.attributes && el.attributes.y && el.attributes._orig_x) {
				var params = get_params()
				params.x = el.attributes._orig_x.value;
				params.y = el.attributes.y.value;
				history.replaceState(null, null, parse_params(params));
			}
		}
		else if (e.target.id == "unzoom") clearzoom();
		else if (e.target.id == "search") search_prompt();
		else if (e.target.id == "ignorecase") toggle_ignorecase();
	}, false)

	// mouse-over for info
	// show
	window.addEventListener("mouseover", function(e) {
		var target = find_group(e.target);
		if (target) details.nodeValue = "Function: " + g_to_text(target);
	}, false)

	// clear
	window.addEventListener("mouseout", function(e) {
		var target = find_group(e.target);
		if (target) details.nodeValue = ' ';
	}, false)

	// ctrl-F for search
	// ctrl-I to toggle case-sensitive search
	window.addEventListener("keydown",function (e) {
		if (e.keyCode === 114 || (e.ctrlKey && e.keyCode === 70)) {
			e.preventDefault();
			search_prompt();
		}
		else if (e.ctrlKey && e.keyCode === 73) {
			e.preventDefault();
			toggle_ignorecase();
		}
	}, false)

	// functions
	function get_params() {
		var params = {};
		var paramsarr = window.location.search.substr(1).split('&');
		for (var i = 0; i < paramsarr.length; ++i) {
			var tmp = paramsarr[i].split("=");
			if (!tmp[0] || !tmp[1]) continue;
			params[tmp[0]]  = decodeURIComponent(tmp[1]);
		}
		return params;
	}
	function parse_params(params) {
		var uri = "?";
		for (var key in params) {
			uri += key + '=' + encodeURIComponent(params[key]) + '&';
		}
		if (uri.slice(-1) == "&")
			uri = uri.substring(0, uri.length - 1);
		if (uri == '?')
			uri = window.location.href.split('?')[0];
		return uri;
	}
	function find_child(node, selector) {
		var children = node.querySelectorAll(selector);
		if (children.length) return children[0];
	}
	function find_group(node) {
		var parent = node.parentElement;
		if (!parent) return;
		if (parent.id == "frames") return node;
		return find_group(parent);
	}
	function orig_save(e, attr, val) {
		if (e.attributes["_orig_" + attr] != undefined) return;
		if (e.attributes[attr] == undefined) return;
		if (val == undefined) val = e.attributes[attr].value;
		e.setAttribute("_orig_" + attr, val);
	}
	function orig_load(e, attr) {
		if (e.attributes["_orig_"+attr] == undefined) return;
		e.attributes[attr].value = e.attributes["_orig_" + attr].value;
		e.removeAttribute("_orig_"+attr);
	}
	function g_to_text(e) {
		var text = find_child(e, "title").firstChild.nodeValue;
		return (text)
	}
	function g_to_func(e) {
		var func = g_to_text(e);
		// if there's any manipulation we want to do to the function
		// name before it's searched, do it here before returning.
		return (func);
	}
	function update_text(e) {
		var r = find_child(e, "rect");
		var t = find_child(e, "text");
		var w = parseFloat(r.attributes.width.value) -3;
		var txt = find_child(e, "title").textContent.replace(/\([^(]*\)$/,"");
		t.attributes.x.value = parseFloat(r.attributes.x.value) + 3;

		// Smaller than this size won't fit anything
		if (w < 2 * 12 * 0.59) {
			t.textContent = "";
			return;
		}

		t.textContent = txt;
		var sl = t.getSubStringLength(0, txt.length);
		// check if only whitespace or if we can fit the entire string into width w
		if (/^ *$/.test(txt) || sl < w)
			return;

		// this isn't perfect, but gives a good starting point
		// and avoids calling getSubStringLength too often
		var start = Math.floor((w/sl) * txt.length);
		for (var x = start; x > 0; x = x-2) {
			if (t.getSubStringLength(0, x + 2) <= w) {
				t.textContent = txt.substring(0, x) + "..";
				return;
			}
		}
		t.textContent = "";
	}

	// zoom
	function zoom_reset(e) {
		if (e.attributes != undefined) {
			orig_load(e, "x");
			orig_load(e, "width");
		}
		if (e.childNodes == undefined) return;
		for (var i = 0, c = e.childNodes; i < c.length; i++) {
			zoom_reset(c[i]);
		}
	}
	function zoom_child(e, x, ratio) {
		if (e.attributes != undefined) {
			if (e.attributes.x != undefined) {
				orig_save(e, "x");
				e.attributes.x.value = (parseFloat(e.attributes.x.value) - x - 10) * ratio + 10;
				if (e.tagName == "text")
					e.attributes.x.value = find_child(e.parentNode, "rect[x]").attributes.x.value + 3;
			}
			if (e.attributes.width != undefined) {
				orig_save(e, "width");
				e.attributes.width.value = parseFloat(e.attributes.width.value) * ratio;
			}
		}

		if (e.childNodes == undefined) return;
		for (var i = 0, c = e.childNodes; i < c.length; i++) {
			zoom_child(c[i], x - 10, ratio);
		}
	}
	function zoom_parent(e) {
		if (e.attributes) {
			if (e.attributes.x != undefined) {
				orig_save(e, "x");
				e.attributes.x.value = 10;
			}
			if (e.attributes.width != undefined) {
				orig_save(e, "width");
				e.attributes.width.value = parseInt(svg.width.baseVal.value) - (10 * 2);
			}
		}
		if (e.childNodes == undefined) return;
		for (var i = 0, c = e.childNodes; i < c.length; i++) {
			zoom_parent(c[i]);
		}
	}
	function zoom(node) {
		var attr = find_child(node, "rect").attributes;
		var width = parseFloat(attr.width.value);
		var xmin = parseFloat(attr.x.value);
		var xmax = parseFloat(xmin + width);
		var ymin = parseFloat(attr.y.value);
		var ratio = (svg.width.baseVal.value - 2 * 10) / width;

		// XXX: Workaround for JavaScript float issues (fix me)
		var fudge = 0.0001;

		unzoombtn.classList.remove("hide");

		var el = document.getElementById("frames").children;
		for (var i = 0; i < el.length; i++) {
			var e = el[i];
			var a = find_child(e, "rect").attributes;
			var ex = parseFloat(a.x.value);
			var ew = parseFloat(a.width.value);
			var upstack;
			// Is it an ancestor
			if (0 == 0) {
				upstack = parseFloat(a.y.value) > ymin;
			} else {
				upstack = parseFloat(a.y.value) < ymin;
			}
			if (upstack) {
				// Direct ancestor
				if (ex <= xmin && (ex+ew+fudge) >= xmax) {
					e.classList.add("parent");
					zoom_parent(e);
					update_text(e);
				}
				// not in current path
				else
					e.classList.add("hide");
			}
			// Children maybe
			else {
				// no common path
				if (ex < xmin || ex + fudge >= xmax) {
					e.classList.add("hide");
				}
				else {
					zoom_child(e, xmin, ratio);
					update_text(e);
				}
			}
		}
		search();
	}
	function unzoom(dont_update_text) {
		unzoombtn.classList.add("hide");
		var el = document.getElementById("frames").children;
		for(var i = 0; i < el.length; i++) {
			el[i].classList.remove("parent");
			el[i].classList.remove("hide");
			zoom_reset(el[i]);
			if(!dont_update_text) update_text(el[i]);
		}
		search();
	}
	function clearzoom() {
		unzoom();

		// remove zoom state
		var params = get_params();
		if (params.x) delete params.x;
		if (params.y) delete params.y;
		history.replaceState(null, null, parse_params(params));
	}

	// search
	function toggle_ignorecase() {
		ignorecase = !ignorecase;
		if (ignorecase) {
			ignorecaseBtn.classList.add("show");
		} else {
			ignorecaseBtn.classList.remove("show");
		}
		reset_search();
		search();
	}
	function reset_search() {
		var el = document.querySelectorAll("#frames rect");
		for (var i = 0; i < el.length; i++) {
			orig_load(el[i], "fill")
		}
		var params = get_params();
		delete params.s;
		history.replaceState(null, null, parse_params(params));
	}
	function search_prompt() {
		if (!searching) {
			var term = prompt("Enter a search term (regexp " +
			    "allowed, eg: ^ext4_)"
			    + (ignorecase ? ", ignoring case" : "")
			    + "\nPress Ctrl-i to toggle case sensitivity", "");
			if (term != null) search(term);
		} else {
			reset_search();
			searching = 0;
			currentSearchTerm = null;
			searchbtn.classList.remove("show");
			searchbtn.firstChild.nodeValue = "Search"
			matchedtxt.classList.add("hide");
			matchedtxt.firstChild.nodeValue = ""
		}
	}
	function search(term) {
		if (term) currentSearchTerm = term;

		var re = new RegExp(currentSearchTerm, ignorecase ? 'i' : '');
		var el = document.getElementById("frames").children;
		var matches = new Object();
		var maxwidth = 0;
		for (var i = 0; i < el.length; i++) {
			var e = el[i];
			var func = g_to_func(e);
			var rect = find_child(e, "rect");
			if (func == null || rect == null)
				continue;

			// Save max width. Only works as we have a root frame
			var w = parseFloat(rect.attributes.width.value);
			if (w > maxwidth)
				maxwidth = w;

			if (func.match(re)) {
				// highlight
				var x = parseFloat(rect.attributes.x.value);
				orig_save(rect, "fill");
				rect.attributes.fill.value = "rgb(230,0,230)";

				// remember matches
				if (matches[x] == undefined) {
					matches[x] = w;
				} else {
					if (w > matches[x]) {
						// overwrite with parent
						matches[x] = w;
					}
				}
				searching = 1;
			}
		}
		if (!searching)
			return;
		var params = get_params();
		params.s = currentSearchTerm;
		history.replaceState(null, null, parse_params(params));

		searchbtn.classList.add("show");
		searchbtn.firstChild.nodeValue = "Reset Search";

		// calculate percent matched, excluding vertical overlap
		var count = 0;
		var lastx = -1;
		var lastw = 0;
		var keys = Array();
		for (k in matches) {
			if (matches.hasOwnProperty(k))
				keys.push(k);
		}
		// sort the matched frames by their x location
		// ascending, then width descending
		keys.sort(function(a, b){
			return a - b;
		});
		// Step through frames saving only the biggest bottom-up frames
		// thanks to the sort order. This relies on the tree property
		// where children are always smaller than their parents.
		var fudge = 0.0001;	// JavaScript floating point
		for (var k in keys) {
			var x = parseFloat(keys[k]);
			var w = matches[keys[k]];
			if (x >= lastx + lastw - fudge) {
				count += w;
				lastx = x;
				lastw = w;
			}
		}
		// display matched percent
		matchedtxt.classList.remove("hide");
		var pct = 100 * count / maxwidth;
		if (pct != 100) pct = pct.toFixed(1)
		matchedtxt.firstChild.nodeValue = "Matched: " + pct + "%";
	}
]]>
</script>
<rect x="0.0" y="0" width="1200.0" height="342.0" fill="url(#background)"  />
<text id="title" x="600.00" y="24" >Flame Graph</text>
<text id="details" x="10.00" y="325" > </text>
<text id="unzoom" x="10.00" y="24" class="hide">Reset Zoom</text>
<text id="search" x="1090.00" y="24" >Search</text>
<text id="ignorecase" x="1174.00" y="24" >ic</text>
<text id="matched" x="1090.00" y="325" > </text>
<g id="frames">
<g >
<title>schedule (11,407 ms, 0.46%)</title><rect x="10.0" y="165" width="5.5" height="15.0" fill="rgb(133,133,208)" rx="2" ry="2" />
<text  x="13.00" y="175.5" ></text>
</g>
<g >
<title>path_lookupat (324 ms, 0.01%)</title><rect x="686.0" y="165" width="0.1" height="15.0" fill="rgb(121,121,191)" rx="2" ry="2" />
<text  x="688.97" y="175.5" ></text>
</g>
<g >
<title>finish_task_switch.isra.0 (529,223 ms, 21.47%)</title><rect x="357.6" y="37" width="253.3" height="15.0" fill="rgb(84,84,193)" rx="2" ry="2" />
<text  x="360.55" y="47.5" >finish_task_switch.isra.0</text>
</g>
<g >
<title>schedule (61,784 ms, 2.51%)</title><rect x="656.4" y="165" width="29.6" height="15.0" fill="rgb(97,97,244)" rx="2" ry="2" />
<text  x="659.39" y="175.5" >sc..</text>
</g>
<g >
<title>do_syscall_64 (2,465,253 ms, 100.00%)</title><rect x="10.0" y="245" width="1180.0" height="15.0" fill="rgb(110,110,243)" rx="2" ry="2" />
<text  x="13.00" y="255.5" >do_syscall_64</text>
</g>
<g >
<title>inode_permission (82,380 ms, 3.34%)</title><rect x="1059.7" y="149" width="39.4" height="15.0" fill="rgb(122,122,216)" rx="2" ry="2" />
<text  x="1062.70" y="159.5" >ino..</text>
</g>
<g >
<title>__schedule (93,162 ms, 3.78%)</title><rect x="610.9" y="69" width="44.6" height="15.0" fill="rgb(110,110,206)" rx="2" ry="2" />
<text  x="613.87" y="79.5" >__sc..</text>
</g>
<g >
<title>finish_task_switch.isra.0 (89,741 ms, 3.64%)</title><rect x="1099.2" y="69" width="42.9" height="15.0" fill="rgb(106,106,202)" rx="2" ry="2" />
<text  x="1102.16" y="79.5" >fini..</text>
</g>
<g >
<title>schedule (306,025 ms, 12.41%)</title><rect x="873.6" y="85" width="146.5" height="15.0" fill="rgb(101,101,239)" rx="2" ry="2" />
<text  x="876.58" y="95.5" >schedule</text>
</g>
<g >
<title>finish_task_switch.isra.0 (1,077 ms, 0.04%)</title><rect x="1142.1" y="69" width="0.5" height="15.0" fill="rgb(117,117,239)" rx="2" ry="2" />
<text  x="1145.11" y="79.5" ></text>
</g>
<g >
<title>kernfs_iop_get_link (1,077 ms, 0.04%)</title><rect x="1142.1" y="133" width="0.5" height="15.0" fill="rgb(131,131,193)" rx="2" ry="2" />
<text  x="1145.11" y="143.5" ></text>
</g>
<g >
<title>step_into (1,077 ms, 0.04%)</title><rect x="1142.1" y="149" width="0.5" height="15.0" fill="rgb(131,131,217)" rx="2" ry="2" />
<text  x="1145.11" y="159.5" ></text>
</g>
<g >
<title>kernfs_iop_getattr (11,407 ms, 0.46%)</title><rect x="10.0" y="197" width="5.5" height="15.0" fill="rgb(132,132,244)" rx="2" ry="2" />
<text  x="13.00" y="207.5" ></text>
</g>
<g >
<title>lookup_fast (306,025 ms, 12.41%)</title><rect x="873.6" y="133" width="146.5" height="15.0" fill="rgb(117,117,198)" rx="2" ry="2" />
<text  x="876.58" y="143.5" >lookup_fast</text>
</g>
<g >
<title>kernfs_iop_permission (391,645 ms, 15.89%)</title><rect x="686.1" y="133" width="187.5" height="15.0" fill="rgb(132,132,241)" rx="2" ry="2" />
<text  x="689.12" y="143.5" >kernfs_iop_permission</text>
</g>
<g >
<title>rwsem_down_read_slowpath (1,077 ms, 0.04%)</title><rect x="1142.1" y="117" width="0.5" height="15.0" fill="rgb(95,95,221)" rx="2" ry="2" />
<text  x="1145.11" y="127.5" ></text>
</g>
<g >
<title>rwsem_down_read_slowpath (12,736 ms, 0.52%)</title><rect x="1177.9" y="133" width="6.1" height="15.0" fill="rgb(113,113,222)" rx="2" ry="2" />
<text  x="1180.87" y="143.5" ></text>
</g>
<g >
<title>user_path_at_empty (324 ms, 0.01%)</title><rect x="686.0" y="197" width="0.1" height="15.0" fill="rgb(112,112,192)" rx="2" ry="2" />
<text  x="688.97" y="207.5" ></text>
</g>
<g >
<title>entry_SYSCALL_64_after_hwframe (2,465,253 ms, 100.00%)</title><rect x="10.0" y="261" width="1180.0" height="15.0" fill="rgb(86,86,209)" rx="2" ry="2" />
<text  x="13.00" y="271.5" >entry_SYSCALL_64_after_hwframe</text>
</g>
<g >
<title>kernfs_dop_revalidate (306,025 ms, 12.41%)</title><rect x="873.6" y="117" width="146.5" height="15.0" fill="rgb(123,123,235)" rx="2" ry="2" />
<text  x="876.58" y="127.5" >kernfs_dop_revalid..</text>
</g>
<g >
<title>may_open (82,380 ms, 3.34%)</title><rect x="1059.7" y="165" width="39.4" height="15.0" fill="rgb(91,91,203)" rx="2" ry="2" />
<text  x="1062.70" y="175.5" >may..</text>
</g>
<g >
<title>lookup_fast (82,799 ms, 3.36%)</title><rect x="1020.1" y="165" width="39.6" height="15.0" fill="rgb(118,118,215)" rx="2" ry="2" />
<text  x="1023.06" y="175.5" >loo..</text>
</g>
<g >
<title>vfs_fstat (11,407 ms, 0.46%)</title><rect x="10.0" y="213" width="5.5" height="15.0" fill="rgb(120,120,230)" rx="2" ry="2" />
<text  x="13.00" y="223.5" ></text>
</g>
<g >
<title>do_filp_open (189,841 ms, 7.70%)</title><rect x="1099.1" y="197" width="90.9" height="15.0" fill="rgb(99,99,226)" rx="2" ry="2" />
<text  x="1102.13" y="207.5" >do_filp_open</text>
</g>
<g >
<title>__do_sys_newfstatat (1,339,021 ms, 54.32%)</title><rect x="15.5" y="229" width="640.9" height="15.0" fill="rgb(104,104,202)" rx="2" ry="2" />
<text  x="18.46" y="239.5" >__do_sys_newfstatat</text>
</g>
<g >
<title>inode_permission (12,589 ms, 0.51%)</title><rect x="1184.0" y="149" width="6.0" height="15.0" fill="rgb(82,82,197)" rx="2" ry="2" />
<text  x="1186.97" y="159.5" ></text>
</g>
<g >
<title>lookup_fast (93,162 ms, 3.78%)</title><rect x="610.9" y="133" width="44.6" height="15.0" fill="rgb(85,85,207)" rx="2" ry="2" />
<text  x="613.87" y="143.5" >look..</text>
</g>
<g >
<title>user_path_at_empty (1,246,529 ms, 50.56%)</title><rect x="59.7" y="197" width="596.7" height="15.0" fill="rgb(139,139,214)" rx="2" ry="2" />
<text  x="62.73" y="207.5" >user_path_at_empty</text>
</g>
<g >
<title>__schedule (11,407 ms, 0.46%)</title><rect x="10.0" y="149" width="5.5" height="15.0" fill="rgb(95,95,238)" rx="2" ry="2" />
<text  x="13.00" y="159.5" ></text>
</g>
<g >
<title>rwsem_down_read_slowpath (622,212 ms, 25.24%)</title><rect x="59.7" y="101" width="297.9" height="15.0" fill="rgb(138,138,216)" rx="2" ry="2" />
<text  x="62.73" y="111.5" >rwsem_down_read_slowpath</text>
</g>
<g >
<title>rwsem_down_read_slowpath (11,407 ms, 0.46%)</title><rect x="10.0" y="181" width="5.5" height="15.0" fill="rgb(99,99,210)" rx="2" ry="2" />
<text  x="13.00" y="191.5" ></text>
</g>
<g >
<title>schedule (12,736 ms, 0.52%)</title><rect x="1177.9" y="117" width="6.1" height="15.0" fill="rgb(138,138,192)" rx="2" ry="2" />
<text  x="1180.87" y="127.5" ></text>
</g>
<g >
<title>__schedule (1,077 ms, 0.04%)</title><rect x="1142.1" y="85" width="0.5" height="15.0" fill="rgb(98,98,202)" rx="2" ry="2" />
<text  x="1145.11" y="95.5" ></text>
</g>
<g >
<title>kubelet (2,465,253 ms, 100.00%)</title><rect x="10.0" y="277" width="1180.0" height="15.0" fill="rgb(106,106,210)" rx="2" ry="2" />
<text  x="13.00" y="287.5" >kubelet</text>
</g>
<g >
<title>__schedule (82,799 ms, 3.36%)</title><rect x="1020.1" y="101" width="39.6" height="15.0" fill="rgb(106,106,217)" rx="2" ry="2" />
<text  x="1023.06" y="111.5" >__s..</text>
</g>
<g >
<title>finish_task_switch.isra.0 (61,784 ms, 2.51%)</title><rect x="656.4" y="133" width="29.6" height="15.0" fill="rgb(133,133,207)" rx="2" ry="2" />
<text  x="659.39" y="143.5" >fi..</text>
</g>
<g >
<title>__schedule (529,223 ms, 21.47%)</title><rect x="357.6" y="53" width="253.3" height="15.0" fill="rgb(88,88,243)" rx="2" ry="2" />
<text  x="360.55" y="63.5" >__schedule</text>
</g>
<g >
<title>rwsem_down_read_slowpath (82,380 ms, 3.34%)</title><rect x="1059.7" y="117" width="39.4" height="15.0" fill="rgb(121,121,225)" rx="2" ry="2" />
<text  x="1062.70" y="127.5" >rws..</text>
</g>
<g >
<title>kernfs_iop_permission (622,212 ms, 25.24%)</title><rect x="59.7" y="117" width="297.9" height="15.0" fill="rgb(125,125,197)" rx="2" ry="2" />
<text  x="62.73" y="127.5" >kernfs_iop_permission</text>
</g>
<g >
<title>kernfs_fop_readdir (61,784 ms, 2.51%)</title><rect x="656.4" y="197" width="29.6" height="15.0" fill="rgb(99,99,238)" rx="2" ry="2" />
<text  x="659.39" y="207.5" >ke..</text>
</g>
<g >
<title>schedule (82,380 ms, 3.34%)</title><rect x="1059.7" y="101" width="39.4" height="15.0" fill="rgb(93,93,198)" rx="2" ry="2" />
<text  x="1062.70" y="111.5" >sch..</text>
</g>
<g >
<title>finish_task_switch.isra.0 (11,407 ms, 0.46%)</title><rect x="10.0" y="133" width="5.5" height="15.0" fill="rgb(94,94,219)" rx="2" ry="2" />
<text  x="13.00" y="143.5" ></text>
</g>
<g >
<title>finish_task_switch.isra.0 (1,932 ms, 0.08%)</title><rect x="655.5" y="85" width="0.9" height="15.0" fill="rgb(133,133,205)" rx="2" ry="2" />
<text  x="658.46" y="95.5" ></text>
</g>
<g >
<title>schedule (89,741 ms, 3.64%)</title><rect x="1099.2" y="101" width="42.9" height="15.0" fill="rgb(93,93,202)" rx="2" ry="2" />
<text  x="1102.16" y="111.5" >sche..</text>
</g>
<g >
<title>__schedule (622,212 ms, 25.24%)</title><rect x="59.7" y="69" width="297.9" height="15.0" fill="rgb(138,138,211)" rx="2" ry="2" />
<text  x="62.73" y="79.5" >__schedule</text>
</g>
<g >
<title>lookup_fast (12,736 ms, 0.52%)</title><rect x="1177.9" y="165" width="6.1" height="15.0" fill="rgb(85,85,229)" rx="2" ry="2" />
<text  x="1180.87" y="175.5" ></text>
</g>
<g >
<title>__schedule (391,645 ms, 15.89%)</title><rect x="686.1" y="85" width="187.5" height="15.0" fill="rgb(138,138,228)" rx="2" ry="2" />
<text  x="689.12" y="95.5" >__schedule</text>
</g>
<g >
<title>finish_task_switch.isra.0 (92,491 ms, 3.75%)</title><rect x="15.5" y="133" width="44.2" height="15.0" fill="rgb(96,96,191)" rx="2" ry="2" />
<text  x="18.46" y="143.5" >fini..</text>
</g>
<g >
<title>rwsem_down_read_slowpath (1,932 ms, 0.08%)</title><rect x="655.5" y="133" width="0.9" height="15.0" fill="rgb(126,126,233)" rx="2" ry="2" />
<text  x="658.46" y="143.5" ></text>
</g>
<g >
<title>finish_task_switch.isra.0 (73,633 ms, 2.99%)</title><rect x="1142.6" y="53" width="35.3" height="15.0" fill="rgb(107,107,208)" rx="2" ry="2" />
<text  x="1145.63" y="63.5" >fi..</text>
</g>
<g >
<title>finish_task_switch.isra.0 (391,645 ms, 15.89%)</title><rect x="686.1" y="69" width="187.5" height="15.0" fill="rgb(136,136,238)" rx="2" ry="2" />
<text  x="689.12" y="79.5" >finish_task_switch.isra.0</text>
</g>
<g >
<title>walk_component (73,633 ms, 2.99%)</title><rect x="1142.6" y="149" width="35.3" height="15.0" fill="rgb(94,94,211)" rx="2" ry="2" />
<text  x="1145.63" y="159.5" >wa..</text>
</g>
<g >
<title>__schedule (89,741 ms, 3.64%)</title><rect x="1099.2" y="85" width="42.9" height="15.0" fill="rgb(103,103,242)" rx="2" ry="2" />
<text  x="1102.16" y="95.5" >__sc..</text>
</g>
<g >
<title>inode_permission (391,645 ms, 15.89%)</title><rect x="686.1" y="149" width="187.5" height="15.0" fill="rgb(126,126,204)" rx="2" ry="2" />
<text  x="689.12" y="159.5" >inode_permission</text>
</g>
<g >
<title>kernfs_iop_permission (12,589 ms, 0.51%)</title><rect x="1184.0" y="133" width="6.0" height="15.0" fill="rgb(96,96,229)" rx="2" ry="2" />
<text  x="1186.97" y="143.5" ></text>
</g>
<g >
<title>kernfs_dop_revalidate (73,633 ms, 2.99%)</title><rect x="1142.6" y="117" width="35.3" height="15.0" fill="rgb(108,108,229)" rx="2" ry="2" />
<text  x="1145.63" y="127.5" >ke..</text>
</g>
<g >
<title>finish_task_switch.isra.0 (82,799 ms, 3.36%)</title><rect x="1020.1" y="85" width="39.6" height="15.0" fill="rgb(131,131,223)" rx="2" ry="2" />
<text  x="1023.06" y="95.5" >fin..</text>
</g>
<g >
<title>vfs_statx (1,339,021 ms, 54.32%)</title><rect x="15.5" y="213" width="640.9" height="15.0" fill="rgb(101,101,192)" rx="2" ry="2" />
<text  x="18.46" y="223.5" >vfs_statx</text>
</g>
<g >
<title>schedule (92,491 ms, 3.75%)</title><rect x="15.5" y="165" width="44.2" height="15.0" fill="rgb(127,127,244)" rx="2" ry="2" />
<text  x="18.46" y="175.5" >sche..</text>
</g>
<g >
<title>may_open (12,589 ms, 0.51%)</title><rect x="1184.0" y="165" width="6.0" height="15.0" fill="rgb(94,94,233)" rx="2" ry="2" />
<text  x="1186.97" y="175.5" ></text>
</g>
<g >
<title>rwsem_down_read_slowpath (61,784 ms, 2.51%)</title><rect x="656.4" y="181" width="29.6" height="15.0" fill="rgb(138,138,242)" rx="2" ry="2" />
<text  x="659.39" y="191.5" >rw..</text>
</g>
<g >
<title>kernfs_dop_revalidate (529,223 ms, 21.47%)</title><rect x="357.6" y="101" width="253.3" height="15.0" fill="rgb(86,86,205)" rx="2" ry="2" />
<text  x="360.55" y="111.5" >kernfs_dop_revalidate</text>
</g>
<g >
<title>filename_lookup (1,246,529 ms, 50.56%)</title><rect x="59.7" y="181" width="596.7" height="15.0" fill="rgb(96,96,209)" rx="2" ry="2" />
<text  x="62.73" y="191.5" >filename_lookup</text>
</g>
<g >
<title>schedule (529,223 ms, 21.47%)</title><rect x="357.6" y="69" width="253.3" height="15.0" fill="rgb(115,115,205)" rx="2" ry="2" />
<text  x="360.55" y="79.5" >schedule</text>
</g>
<g >
<title>path_lookupat (1,246,529 ms, 50.56%)</title><rect x="59.7" y="165" width="596.7" height="15.0" fill="rgb(93,93,195)" rx="2" ry="2" />
<text  x="62.73" y="175.5" >path_lookupat</text>
</g>
<g >
<title>kernfs_dop_revalidate (12,736 ms, 0.52%)</title><rect x="1177.9" y="149" width="6.1" height="15.0" fill="rgb(115,115,236)" rx="2" ry="2" />
<text  x="1180.87" y="159.5" ></text>
</g>
<g >
<title>__schedule (12,736 ms, 0.52%)</title><rect x="1177.9" y="101" width="6.1" height="15.0" fill="rgb(85,85,204)" rx="2" ry="2" />
<text  x="1180.87" y="111.5" ></text>
</g>
<g >
<title>__schedule (82,380 ms, 3.34%)</title><rect x="1059.7" y="85" width="39.4" height="15.0" fill="rgb(120,120,209)" rx="2" ry="2" />
<text  x="1062.70" y="95.5" >__s..</text>
</g>
<g >
<title>__do_sys_newfstat (11,407 ms, 0.46%)</title><rect x="10.0" y="229" width="5.5" height="15.0" fill="rgb(120,120,211)" rx="2" ry="2" />
<text  x="13.00" y="239.5" ></text>
</g>
<g >
<title>finish_task_switch.isra.0 (93,162 ms, 3.78%)</title><rect x="610.9" y="53" width="44.6" height="15.0" fill="rgb(125,125,242)" rx="2" ry="2" />
<text  x="613.87" y="63.5" >fini..</text>
</g>
<g >
<title>rwsem_down_read_slowpath (93,162 ms, 3.78%)</title><rect x="610.9" y="101" width="44.6" height="15.0" fill="rgb(82,82,211)" rx="2" ry="2" />
<text  x="613.87" y="111.5" >rwse..</text>
</g>
<g >
<title>rwsem_down_read_slowpath (306,025 ms, 12.41%)</title><rect x="873.6" y="101" width="146.5" height="15.0" fill="rgb(82,82,210)" rx="2" ry="2" />
<text  x="876.58" y="111.5" >rwsem_down_read_sl..</text>
</g>
<g >
<title>__schedule (306,025 ms, 12.41%)</title><rect x="873.6" y="69" width="146.5" height="15.0" fill="rgb(119,119,244)" rx="2" ry="2" />
<text  x="876.58" y="79.5" >__schedule</text>
</g>
<g >
<title>iterate_dir (61,784 ms, 2.51%)</title><rect x="656.4" y="213" width="29.6" height="15.0" fill="rgb(89,89,225)" rx="2" ry="2" />
<text  x="659.39" y="223.5" >it..</text>
</g>
<g >
<title>link_path_walk.part.0.constprop.0 (697,670 ms, 28.30%)</title><rect x="686.1" y="165" width="334.0" height="15.0" fill="rgb(83,83,243)" rx="2" ry="2" />
<text  x="689.12" y="175.5" >link_path_walk.part.0.constprop.0</text>
</g>
<g >
<title>kernfs_dop_revalidate (93,162 ms, 3.78%)</title><rect x="610.9" y="117" width="44.6" height="15.0" fill="rgb(92,92,196)" rx="2" ry="2" />
<text  x="613.87" y="127.5" >kern..</text>
</g>
<g >
<title>__schedule (73,633 ms, 2.99%)</title><rect x="1142.6" y="69" width="35.3" height="15.0" fill="rgb(83,83,244)" rx="2" ry="2" />
<text  x="1145.63" y="79.5" >__..</text>
</g>
<g >
<title>rwsem_down_read_slowpath (82,799 ms, 3.36%)</title><rect x="1020.1" y="133" width="39.6" height="15.0" fill="rgb(92,92,192)" rx="2" ry="2" />
<text  x="1023.06" y="143.5" >rws..</text>
</g>
<g >
<title>rwsem_down_read_slowpath (73,633 ms, 2.99%)</title><rect x="1142.6" y="101" width="35.3" height="15.0" fill="rgb(88,88,240)" rx="2" ry="2" />
<text  x="1145.63" y="111.5" >rw..</text>
</g>
<g >
<title>schedule (73,633 ms, 2.99%)</title><rect x="1142.6" y="85" width="35.3" height="15.0" fill="rgb(122,122,242)" rx="2" ry="2" />
<text  x="1145.63" y="95.5" >sc..</text>
</g>
<g >
<title>walk_component (306,025 ms, 12.41%)</title><rect x="873.6" y="149" width="146.5" height="15.0" fill="rgb(87,87,219)" rx="2" ry="2" />
<text  x="876.58" y="159.5" >walk_component</text>
</g>
<g >
<title>schedule (1,077 ms, 0.04%)</title><rect x="1142.1" y="101" width="0.5" height="15.0" fill="rgb(81,81,212)" rx="2" ry="2" />
<text  x="1145.11" y="111.5" ></text>
</g>
<g >
<title>__x64_sys_openat (189,841 ms, 7.70%)</title><rect x="1099.1" y="229" width="90.9" height="15.0" fill="rgb(120,120,204)" rx="2" ry="2" />
<text  x="1102.13" y="239.5" >__x64_sys_..</text>
</g>
<g >
<title>do_sys_openat2 (862,849 ms, 35.00%)</title><rect x="686.1" y="213" width="413.0" height="15.0" fill="rgb(114,114,190)" rx="2" ry="2" />
<text  x="689.12" y="223.5" >do_sys_openat2</text>
</g>
<g >
<title>__x64_sys_openat2 (862,849 ms, 35.00%)</title><rect x="686.1" y="229" width="413.0" height="15.0" fill="rgb(84,84,207)" rx="2" ry="2" />
<text  x="689.12" y="239.5" >__x64_sys_openat2</text>
</g>
<g >
<title>kernfs_iop_permission (89,741 ms, 3.64%)</title><rect x="1099.2" y="133" width="42.9" height="15.0" fill="rgb(131,131,207)" rx="2" ry="2" />
<text  x="1102.16" y="143.5" >kern..</text>
</g>
<g >
<title>path_openat (189,841 ms, 7.70%)</title><rect x="1099.1" y="181" width="90.9" height="15.0" fill="rgb(93,93,213)" rx="2" ry="2" />
<text  x="1102.13" y="191.5" >path_openat</text>
</g>
<g >
<title>inode_permission (622,212 ms, 25.24%)</title><rect x="59.7" y="133" width="297.9" height="15.0" fill="rgb(139,139,216)" rx="2" ry="2" />
<text  x="62.73" y="143.5" >inode_permission</text>
</g>
<g >
<title>inotify_find_inode (342 ms, 0.01%)</title><rect x="686.0" y="213" width="0.1" height="15.0" fill="rgb(107,107,225)" rx="2" ry="2" />
<text  x="688.96" y="223.5" ></text>
</g>
<g >
<title>filename_lookup (324 ms, 0.01%)</title><rect x="686.0" y="181" width="0.1" height="15.0" fill="rgb(105,105,207)" rx="2" ry="2" />
<text  x="688.97" y="191.5" ></text>
</g>
<g >
<title>finish_task_switch.isra.0 (622,212 ms, 25.24%)</title><rect x="59.7" y="53" width="297.9" height="15.0" fill="rgb(114,114,198)" rx="2" ry="2" />
<text  x="62.73" y="63.5" >finish_task_switch.isra.0</text>
</g>
<g >
<title>finish_task_switch.isra.0 (12,736 ms, 0.52%)</title><rect x="1177.9" y="85" width="6.1" height="15.0" fill="rgb(90,90,237)" rx="2" ry="2" />
<text  x="1180.87" y="95.5" ></text>
</g>
<g >
<title>schedule (622,212 ms, 25.24%)</title><rect x="59.7" y="85" width="297.9" height="15.0" fill="rgb(80,80,207)" rx="2" ry="2" />
<text  x="62.73" y="95.5" >schedule</text>
</g>
<g >
<title>schedule (93,162 ms, 3.78%)</title><rect x="610.9" y="85" width="44.6" height="15.0" fill="rgb(129,129,223)" rx="2" ry="2" />
<text  x="613.87" y="95.5" >sche..</text>
</g>
<g >
<title>__schedule (61,784 ms, 2.51%)</title><rect x="656.4" y="149" width="29.6" height="15.0" fill="rgb(106,106,227)" rx="2" ry="2" />
<text  x="659.39" y="159.5" >__..</text>
</g>
<g >
<title>schedule (12,589 ms, 0.51%)</title><rect x="1184.0" y="101" width="6.0" height="15.0" fill="rgb(90,90,190)" rx="2" ry="2" />
<text  x="1186.97" y="111.5" ></text>
</g>
<g >
<title>do_filp_open (862,849 ms, 35.00%)</title><rect x="686.1" y="197" width="413.0" height="15.0" fill="rgb(136,136,236)" rx="2" ry="2" />
<text  x="689.12" y="207.5" >do_filp_open</text>
</g>
<g >
<title>lookup_fast (73,633 ms, 2.99%)</title><rect x="1142.6" y="133" width="35.3" height="15.0" fill="rgb(110,110,217)" rx="2" ry="2" />
<text  x="1145.63" y="143.5" >lo..</text>
</g>
<g >
<title>__x64_sys_inotify_add_watch (342 ms, 0.01%)</title><rect x="686.0" y="229" width="0.1" height="15.0" fill="rgb(114,114,239)" rx="2" ry="2" />
<text  x="688.96" y="239.5" ></text>
</g>
<g >
<title>walk_component (529,223 ms, 21.47%)</title><rect x="357.6" y="133" width="253.3" height="15.0" fill="rgb(93,93,193)" rx="2" ry="2" />
<text  x="360.55" y="143.5" >walk_component</text>
</g>
<g >
<title>kernfs_iop_permission (82,380 ms, 3.34%)</title><rect x="1059.7" y="133" width="39.4" height="15.0" fill="rgb(103,103,216)" rx="2" ry="2" />
<text  x="1062.70" y="143.5" >ker..</text>
</g>
<g >
<title>finish_task_switch.isra.0 (82,380 ms, 3.34%)</title><rect x="1059.7" y="69" width="39.4" height="15.0" fill="rgb(90,90,212)" rx="2" ry="2" />
<text  x="1062.70" y="79.5" >fin..</text>
</g>
<g >
<title>__schedule (1,932 ms, 0.08%)</title><rect x="655.5" y="101" width="0.9" height="15.0" fill="rgb(94,94,231)" rx="2" ry="2" />
<text  x="658.46" y="111.5" ></text>
</g>
<g >
<title>rwsem_down_read_slowpath (92,491 ms, 3.75%)</title><rect x="15.5" y="181" width="44.2" height="15.0" fill="rgb(137,137,226)" rx="2" ry="2" />
<text  x="18.46" y="191.5" >rwse..</text>
</g>
<g >
<title>__schedule (12,589 ms, 0.51%)</title><rect x="1184.0" y="85" width="6.0" height="15.0" fill="rgb(81,81,199)" rx="2" ry="2" />
<text  x="1186.97" y="95.5" ></text>
</g>
<g >
<title>__x64_sys_getdents64 (61,784 ms, 2.51%)</title><rect x="656.4" y="229" width="29.6" height="15.0" fill="rgb(99,99,242)" rx="2" ry="2" />
<text  x="659.39" y="239.5" >__..</text>
</g>
<g >
<title>__schedule (92,491 ms, 3.75%)</title><rect x="15.5" y="149" width="44.2" height="15.0" fill="rgb(94,94,201)" rx="2" ry="2" />
<text  x="18.46" y="159.5" >__sc..</text>
</g>
<g >
<title>rwsem_down_read_slowpath (89,741 ms, 3.64%)</title><rect x="1099.2" y="117" width="42.9" height="15.0" fill="rgb(134,134,218)" rx="2" ry="2" />
<text  x="1102.16" y="127.5" >rwse..</text>
</g>
<g >
<title>rwsem_down_read_slowpath (529,223 ms, 21.47%)</title><rect x="357.6" y="85" width="253.3" height="15.0" fill="rgb(98,98,213)" rx="2" ry="2" />
<text  x="360.55" y="95.5" >rwsem_down_read_slowpath</text>
</g>
<g >
<title>schedule (1,932 ms, 0.08%)</title><rect x="655.5" y="117" width="0.9" height="15.0" fill="rgb(94,94,216)" rx="2" ry="2" />
<text  x="658.46" y="127.5" ></text>
</g>
<g >
<title>rwsem_down_read_slowpath (12,589 ms, 0.51%)</title><rect x="1184.0" y="117" width="6.0" height="15.0" fill="rgb(118,118,192)" rx="2" ry="2" />
<text  x="1186.97" y="127.5" ></text>
</g>
<g >
<title>all (2,465,253 ms, 100%)</title><rect x="10.0" y="293" width="1180.0" height="15.0" fill="rgb(81,81,221)" rx="2" ry="2" />
<text  x="13.00" y="303.5" ></text>
</g>
<g >
<title>inode_permission (89,741 ms, 3.64%)</title><rect x="1099.2" y="149" width="42.9" height="15.0" fill="rgb(118,118,190)" rx="2" ry="2" />
<text  x="1102.16" y="159.5" >inod..</text>
</g>
<g >
<title>finish_task_switch.isra.0 (12,589 ms, 0.51%)</title><rect x="1184.0" y="69" width="6.0" height="15.0" fill="rgb(121,121,242)" rx="2" ry="2" />
<text  x="1186.97" y="79.5" ></text>
</g>
<g >
<title>link_path_walk.part.0.constprop.0 (306 ms, 0.01%)</title><rect x="686.0" y="149" width="0.1" height="15.0" fill="rgb(113,113,221)" rx="2" ry="2" />
<text  x="688.97" y="159.5" ></text>
</g>
<g >
<title>do_sys_openat2 (189,841 ms, 7.70%)</title><rect x="1099.1" y="213" width="90.9" height="15.0" fill="rgb(103,103,225)" rx="2" ry="2" />
<text  x="1102.13" y="223.5" >do_sys_ope..</text>
</g>
<g >
<title>schedule (391,645 ms, 15.89%)</title><rect x="686.1" y="101" width="187.5" height="15.0" fill="rgb(100,100,196)" rx="2" ry="2" />
<text  x="689.12" y="111.5" >schedule</text>
</g>
<g >
<title>walk_component (95,095 ms, 3.86%)</title><rect x="610.9" y="149" width="45.5" height="15.0" fill="rgb(88,88,205)" rx="2" ry="2" />
<text  x="613.87" y="159.5" >walk..</text>
</g>
<g >
<title>rwsem_down_read_slowpath (391,645 ms, 15.89%)</title><rect x="686.1" y="117" width="187.5" height="15.0" fill="rgb(137,137,236)" rx="2" ry="2" />
<text  x="689.12" y="127.5" >rwsem_down_read_slowpath</text>
</g>
<g >
<title>link_path_walk.part.0.constprop.0 (1,151,435 ms, 46.71%)</title><rect x="59.7" y="149" width="551.2" height="15.0" fill="rgb(97,97,211)" rx="2" ry="2" />
<text  x="62.73" y="159.5" >link_path_walk.part.0.constprop.0</text>
</g>
<g >
<title>kernfs_dop_revalidate (82,799 ms, 3.36%)</title><rect x="1020.1" y="149" width="39.6" height="15.0" fill="rgb(101,101,243)" rx="2" ry="2" />
<text  x="1023.06" y="159.5" >ker..</text>
</g>
<g >
<title>lookup_fast (529,223 ms, 21.47%)</title><rect x="357.6" y="117" width="253.3" height="15.0" fill="rgb(99,99,229)" rx="2" ry="2" />
<text  x="360.55" y="127.5" >lookup_fast</text>
</g>
<g >
<title>kernfs_iop_getattr (92,491 ms, 3.75%)</title><rect x="15.5" y="197" width="44.2" height="15.0" fill="rgb(131,131,236)" rx="2" ry="2" />
<text  x="18.46" y="207.5" >kern..</text>
</g>
<g >
<title>path_openat (862,849 ms, 35.00%)</title><rect x="686.1" y="181" width="413.0" height="15.0" fill="rgb(130,130,233)" rx="2" ry="2" />
<text  x="689.12" y="191.5" >path_openat</text>
</g>
<g >
<title>link_path_walk.part.0.constprop.0 (164,450 ms, 6.67%)</title><rect x="1099.2" y="165" width="78.7" height="15.0" fill="rgb(117,117,207)" rx="2" ry="2" />
<text  x="1102.16" y="175.5" >link_path..</text>
</g>
<g >
<title>finish_task_switch.isra.0 (306,025 ms, 12.41%)</title><rect x="873.6" y="53" width="146.5" height="15.0" fill="rgb(91,91,199)" rx="2" ry="2" />
<text  x="876.58" y="63.5" >finish_task_switch..</text>
</g>
<g >
<title>schedule (82,799 ms, 3.36%)</title><rect x="1020.1" y="117" width="39.6" height="15.0" fill="rgb(131,131,208)" rx="2" ry="2" />
<text  x="1023.06" y="127.5" >sch..</text>
</g>
</g>
</svg>
