<?xml version="1.0" standalone="no"?>
<!DOCTYPE svg PUBLIC "-//W3C//DTD SVG 1.1//EN" "http://www.w3.org/Graphics/SVG/1.1/DTD/svg11.dtd">
<svg version="1.1" width="1200" height="342" onload="init(evt)" viewBox="0 0 1200 342" xmlns="http://www.w3.org/2000/svg" xmlns:xlink="http://www.w3.org/1999/xlink">
<!-- Flame graph stack visualization. See https://github.com/brendangregg/FlameGraph for latest version, and http://www.brendangregg.com/flamegraphs.html for examples. -->
<!-- NOTES:  -->
<defs>
	<linearGradient id="background" y1="0" y2="1" x1="0" x2="0" >
		<stop stop-color="#eeeeee" offset="5%" />
		<stop stop-color="#e0e0ff" offset="95%" />
	</linearGradient>
</defs>
<style type="text/css">
	text { font-family:Verdana; font-size:12px; fill:rgb(0,0,0); }
	#search, #ignorecase { opacity:0.1; cursor:pointer; }
	#search:hover, #search.show, #ignorecase:hover, #ignorecase.show { opacity:1; }
	#subtitle { text-anchor:middle; font-color:rgb(160,160,160); }
	#title { text-anchor:middle; font-size:17px}
	#unzoom { cursor:pointer; }
	#frames > *:hover { stroke:black; stroke-width:0.5; cursor:pointer; }
	.hide { display:none; }
	.parent { opacity:0.5; }
</style>
<script type="text/ecmascript">
<![CDATA[
	"use strict";
	var details, searchbtn, unzoombtn, matchedtxt, svg, searching, currentSearchTerm, ignorecase, ignorecaseBtn;
	function init(evt) {
		details = document.getElementById("details").firstChild;
		searchbtn = document.getElementById("search");
		ignorecaseBtn = document.getElementById("ignorecase");
		unzoombtn = document.getElementById("unzoom");
		matchedtxt = document.getElementById("matched");
		svg = document.getElementsByTagName("svg")[0];
		searching = 0;
		currentSearchTerm = null;

		// use GET parameters to restore a flamegraphs state.
		var params = get_params();
		if (params.x && params.y)
			zoom(find_group(document.querySelector('[x="' + params.x + '"][y="' + params.y + '"]')));
                if (params.s) search(params.s);
	}

	// event listeners
	window.addEventListener("click", function(e) {
		var target = find_group(e.target);
		if (target) {
			if (target.nodeName == "a") {
				if (e.ctrlKey === false) return;
				e.preventDefault();
			}
			if (target.classList.contains("parent")) unzoom(true);
			zoom(target);
			if (!document.querySelector('.parent')) {
				// we have basically done a clearzoom so clear the url
				var params = get_params();
				if (params.x) delete params.x;
				if (params.y) delete params.y;
				history.replaceState(null, null, parse_params(params));
				unzoombtn.classList.add("hide");
				return;
			}

			// set parameters for zoom state
			var el = target.querySelector("rect");
			if (el && el.attributes && el.attributes.y && el.attributes._orig_x) {
				var params = get_params()
				params.x = el.attributes._orig_x.value;
				params.y = el.attributes.y.value;
				history.replaceState(null, null, parse_params(params));
			}
		}
		else if (e.target.id == "unzoom") clearzoom();
		else if (e.target.id == "search") search_prompt();
		else if (e.target.id == "ignorecase") toggle_ignorecase();
	}, false)

	// mouse-over for info
	// show
	window.addEventListener("mouseover", function(e) {
		var target = find_group(e.target);
		if (target) details.nodeValue = "Function: " + g_to_text(target);
	}, false)

	// clear
	window.addEventListener("mouseout", function(e) {
		var target = find_group(e.target);
		if (target) details.nodeValue = ' ';
	}, false)

	// ctrl-F for search
	// ctrl-I to toggle case-sensitive search
	window.addEventListener("keydown",function (e) {
		if (e.keyCode === 114 || (e.ctrlKey && e.keyCode === 70)) {
			e.preventDefault();
			search_prompt();
		}
		else if (e.ctrlKey && e.keyCode === 73) {
			e.preventDefault();
			toggle_ignorecase();
		}
	}, false)

	// functions
	function get_params() {
		var params = {};
		var paramsarr = window.location.search.substr(1).split('&');
		for (var i = 0; i < paramsarr.length; ++i) {
			var tmp = paramsarr[i].split("=");
			if (!tmp[0] || !tmp[1]) continue;
			params[tmp[0]]  = decodeURIComponent(tmp[1]);
		}
		return params;
	}
	function parse_params(params) {
		var uri = "?";
		for (var key in params) {
			uri += key + '=' + encodeURIComponent(params[key]) + '&';
		}
		if (uri.slice(-1) == "&")
			uri = uri.substring(0, uri.length - 1);
		if (uri == '?')
			uri = window.location.href.split('?')[0];
		return uri;
	}
	function find_child(node, selector) {
		var children = node.querySelectorAll(selector);
		if (children.length) return children[0];
	}
	function find_group(node) {
		var parent = node.parentElement;
		if (!parent) return;
		if (parent.id == "frames") return node;
		return find_group(parent);
	}
	function orig_save(e, attr, val) {
		if (e.attributes["_orig_" + attr] != undefined) return;
		if (e.attributes[attr] == undefined) return;
		if (val == undefined) val = e.attributes[attr].value;
		e.setAttribute("_orig_" + attr, val);
	}
	function orig_load(e, attr) {
		if (e.attributes["_orig_"+attr] == undefined) return;
		e.attributes[attr].value = e.attributes["_orig_" + attr].value;
		e.removeAttribute("_orig_"+attr);
	}
	function g_to_text(e) {
		var text = find_child(e, "title").firstChild.nodeValue;
		return (text)
	}
	function g_to_func(e) {
		var func = g_to_text(e);
		// if there's any manipulation we want to do to the function
		// name before it's searched, do it here before returning.
		return (func);
	}
	function update_text(e) {
		var r = find_child(e, "rect");
		var t = find_child(e, "text");
		var w = parseFloat(r.attributes.width.value) -3;
		var txt = find_child(e, "title").textContent.replace(/\([^(]*\)$/,"");
		t.attributes.x.value = parseFloat(r.attributes.x.value) + 3;

		// Smaller than this size won't fit anything
		if (w < 2 * 12 * 0.59) {
			t.textContent = "";
			return;
		}

		t.textContent = txt;
		var sl = t.getSubStringLength(0, txt.length);
		// check if only whitespace or if we can fit the entire string into width w
		if (/^ *$/.test(txt) || sl < w)
			return;

		// this isn't perfect, but gives a good starting point
		// and avoids calling getSubStringLength too often
		var start = Math.floor((w/sl) * txt.length);
		for (var x = start; x > 0; x = x-2) {
			if (t.getSubStringLength(0, x + 2) <= w) {
				t.textContent = txt.substring(0, x) + "..";
				return;
			}
		}
		t.textContent = "";
	}

	// zoom
	function zoom_reset(e) {
		if (e.attributes != undefined) {
			orig_load(e, "x");
			orig_load(e, "width");
		}
		if (e.childNodes == undefined) return;
		for (var i = 0, c = e.childNodes; i < c.length; i++) {
			zoom_reset(c[i]);
		}
	}
	function zoom_child(e, x, ratio) {
		if (e.attributes != undefined) {
			if (e.attributes.x != undefined) {
				orig_save(e, "x");
				e.attributes.x.value = (parseFloat(e.attributes.x.value) - x - 10) * ratio + 10;
				if (e.tagName == "text")
					e.attributes.x.value = find_child(e.parentNode, "rect[x]").attributes.x.value + 3;
			}
			if (e.attributes.width != undefined) {
				orig_save(e, "width");
				e.attributes.width.value = parseFloat(e.attributes.width.value) * ratio;
			}
		}

		if (e.childNodes == undefined) return;
		for (var i = 0, c = e.childNodes; i < c.length; i++) {
			zoom_child(c[i], x - 10, ratio);
		}
	}
	function zoom_parent(e) {
		if (e.attributes) {
			if (e.attributes.x != undefined) {
				orig_save(e, "x");
				e.attributes.x.value = 10;
			}
			if (e.attributes.width != undefined) {
				orig_save(e, "width");
				e.attributes.width.value = parseInt(svg.width.baseVal.value) - (10 * 2);
			}
		}
		if (e.childNodes == undefined) return;
		for (var i = 0, c = e.childNodes; i < c.length; i++) {
			zoom_parent(c[i]);
		}
	}
	function zoom(node) {
		var attr = find_child(node, "rect").attributes;
		var width = parseFloat(attr.width.value);
		var xmin = parseFloat(attr.x.value);
		var xmax = parseFloat(xmin + width);
		var ymin = parseFloat(attr.y.value);
		var ratio = (svg.width.baseVal.value - 2 * 10) / width;

		// XXX: Workaround for JavaScript float issues (fix me)
		var fudge = 0.0001;

		unzoombtn.classList.remove("hide");

		var el = document.getElementById("frames").children;
		for (var i = 0; i < el.length; i++) {
			var e = el[i];
			var a = find_child(e, "rect").attributes;
			var ex = parseFloat(a.x.value);
			var ew = parseFloat(a.width.value);
			var upstack;
			// Is it an ancestor
			if (0 == 0) {
				upstack = parseFloat(a.y.value) > ymin;
			} else {
				upstack = parseFloat(a.y.value) < ymin;
			}
			if (upstack) {
				// Direct ancestor
				if (ex <= xmin && (ex+ew+fudge) >= xmax) {
					e.classList.add("parent");
					zoom_parent(e);
					update_text(e);
				}
				// not in current path
				else
					e.classList.add("hide");
			}
			// Children maybe
			else {
				// no common path
				if (ex < xmin || ex + fudge >= xmax) {
					e.classList.add("hide");
				}
				else {
					zoom_child(e, xmin, ratio);
					update_text(e);
				}
			}
		}
		search();
	}
	function unzoom(dont_update_text) {
		unzoombtn.classList.add("hide");
		var el = document.getElementById("frames").children;
		for(var i = 0; i < el.length; i++) {
			el[i].classList.remove("parent");
			el[i].classList.remove("hide");
			zoom_reset(el[i]);
			if(!dont_update_text) update_text(el[i]);
		}
		search();
	}
	function clearzoom() {
		unzoom();

		// remove zoom state
		var params = get_params();
		if (params.x) delete params.x;
		if (params.y) delete params.y;
		history.replaceState(null, null, parse_params(params));
	}

	// search
	function toggle_ignorecase() {
		ignorecase = !ignorecase;
		if (ignorecase) {
			ignorecaseBtn.classList.add("show");
		} else {
			ignorecaseBtn.classList.remove("show");
		}
		reset_search();
		search();
	}
	function reset_search() {
		var el = document.querySelectorAll("#frames rect");
		for (var i = 0; i < el.length; i++) {
			orig_load(el[i], "fill")
		}
		var params = get_params();
		delete params.s;
		history.replaceState(null, null, parse_params(params));
	}
	function search_prompt() {
		if (!searching) {
			var term = prompt("Enter a search term (regexp " +
			    "allowed, eg: ^ext4_)"
			    + (ignorecase ? ", ignoring case" : "")
			    + "\nPress Ctrl-i to toggle case sensitivity", "");
			if (term != null) search(term);
		} else {
			reset_search();
			searching = 0;
			currentSearchTerm = null;
			searchbtn.classList.remove("show");
			searchbtn.firstChild.nodeValue = "Search"
			matchedtxt.classList.add("hide");
			matchedtxt.firstChild.nodeValue = ""
		}
	}
	function search(term) {
		if (term) currentSearchTerm = term;

		var re = new RegExp(currentSearchTerm, ignorecase ? 'i' : '');
		var el = document.getElementById("frames").children;
		var matches = new Object();
		var maxwidth = 0;
		for (var i = 0; i < el.length; i++) {
			var e = el[i];
			var func = g_to_func(e);
			var rect = find_child(e, "rect");
			if (func == null || rect == null)
				continue;

			// Save max width. Only works as we have a root frame
			var w = parseFloat(rect.attributes.width.value);
			if (w > maxwidth)
				maxwidth = w;

			if (func.match(re)) {
				// highlight
				var x = parseFloat(rect.attributes.x.value);
				orig_save(rect, "fill");
				rect.attributes.fill.value = "rgb(230,0,230)";

				// remember matches
				if (matches[x] == undefined) {
					matches[x] = w;
				} else {
					if (w > matches[x]) {
						// overwrite with parent
						matches[x] = w;
					}
				}
				searching = 1;
			}
		}
		if (!searching)
			return;
		var params = get_params();
		params.s = currentSearchTerm;
		history.replaceState(null, null, parse_params(params));

		searchbtn.classList.add("show");
		searchbtn.firstChild.nodeValue = "Reset Search";

		// calculate percent matched, excluding vertical overlap
		var count = 0;
		var lastx = -1;
		var lastw = 0;
		var keys = Array();
		for (k in matches) {
			if (matches.hasOwnProperty(k))
				keys.push(k);
		}
		// sort the matched frames by their x location
		// ascending, then width descending
		keys.sort(function(a, b){
			return a - b;
		});
		// Step through frames saving only the biggest bottom-up frames
		// thanks to the sort order. This relies on the tree property
		// where children are always smaller than their parents.
		var fudge = 0.0001;	// JavaScript floating point
		for (var k in keys) {
			var x = parseFloat(keys[k]);
			var w = matches[keys[k]];
			if (x >= lastx + lastw - fudge) {
				count += w;
				lastx = x;
				lastw = w;
			}
		}
		// display matched percent
		matchedtxt.classList.remove("hide");
		var pct = 100 * count / maxwidth;
		if (pct != 100) pct = pct.toFixed(1)
		matchedtxt.firstChild.nodeValue = "Matched: " + pct + "%";
	}
]]>
</script>
<rect x="0.0" y="0" width="1200.0" height="342.0" fill="url(#background)"  />
<text id="title" x="600.00" y="24" >Flame Graph</text>
<text id="details" x="10.00" y="325" > </text>
<text id="unzoom" x="10.00" y="24" class="hide">Reset Zoom</text>
<text id="search" x="1090.00" y="24" >Search</text>
<text id="ignorecase" x="1174.00" y="24" >ic</text>
<text id="matched" x="1090.00" y="325" > </text>
<g id="frames">
<g >
<title>rwsem_down_read_slowpath (190,697 ms, 2.12%)</title><rect x="16.9" y="101" width="25.0" height="15.0" fill="rgb(133,133,213)" rx="2" ry="2" />
<text  x="19.95" y="111.5" >r..</text>
</g>
<g >
<title>schedule (174,324 ms, 1.93%)</title><rect x="41.9" y="69" width="22.8" height="15.0" fill="rgb(135,135,216)" rx="2" ry="2" />
<text  x="44.91" y="79.5" >s..</text>
</g>
<g >
<title>finish_task_switch.isra.0 (15,255 ms, 0.17%)</title><rect x="64.8" y="53" width="2.0" height="15.0" fill="rgb(95,95,199)" rx="2" ry="2" />
<text  x="67.79" y="63.5" ></text>
</g>
<g >
<title>kernfs_dop_revalidate (3,231,792 ms, 35.84%)</title><rect x="547.7" y="117" width="423.0" height="15.0" fill="rgb(101,101,192)" rx="2" ry="2" />
<text  x="550.73" y="127.5" >kernfs_dop_revalidate</text>
</g>
<g >
<title>__schedule (3,231,792 ms, 35.84%)</title><rect x="547.7" y="69" width="423.0" height="15.0" fill="rgb(87,87,216)" rx="2" ry="2" />
<text  x="550.73" y="79.5" >__schedule</text>
</g>
<g >
<title>finish_task_switch.isra.0 (3,231,792 ms, 35.84%)</title><rect x="547.7" y="53" width="423.0" height="15.0" fill="rgb(127,127,208)" rx="2" ry="2" />
<text  x="550.73" y="63.5" >finish_task_switch.isra.0</text>
</g>
<g >
<title>finish_task_switch.isra.0 (95,609 ms, 1.06%)</title><rect x="66.8" y="133" width="12.5" height="15.0" fill="rgb(101,101,233)" rx="2" ry="2" />
<text  x="69.79" y="143.5" ></text>
</g>
<g >
<title>schedule (475,818 ms, 5.28%)</title><rect x="1059.9" y="101" width="62.3" height="15.0" fill="rgb(88,88,191)" rx="2" ry="2" />
<text  x="1062.93" y="111.5" >schedule</text>
</g>
<g >
<title>path_openat (993,882 ms, 11.02%)</title><rect x="1059.9" y="181" width="130.1" height="15.0" fill="rgb(137,137,197)" rx="2" ry="2" />
<text  x="1062.93" y="191.5" >path_openat</text>
</g>
<g >
<title>kernfs_iop_getattr (15,024 ms, 0.17%)</title><rect x="15.0" y="197" width="1.9" height="15.0" fill="rgb(113,113,204)" rx="2" ry="2" />
<text  x="17.98" y="207.5" ></text>
</g>
<g >
<title>finish_task_switch.isra.0 (39,640 ms, 0.44%)</title><rect x="1184.8" y="69" width="5.2" height="15.0" fill="rgb(85,85,207)" rx="2" ry="2" />
<text  x="1187.81" y="79.5" ></text>
</g>
<g >
<title>schedule (39,564 ms, 0.44%)</title><rect x="1179.6" y="117" width="5.2" height="15.0" fill="rgb(83,83,238)" rx="2" ry="2" />
<text  x="1182.63" y="127.5" ></text>
</g>
<g >
<title>vfs_statx (395,798 ms, 4.39%)</title><rect x="15.0" y="213" width="51.8" height="15.0" fill="rgb(99,99,217)" rx="2" ry="2" />
<text  x="17.98" y="223.5" >vfs_s..</text>
</g>
<g >
<title>walk_component (3,231,792 ms, 35.84%)</title><rect x="547.7" y="149" width="423.0" height="15.0" fill="rgb(106,106,195)" rx="2" ry="2" />
<text  x="550.73" y="159.5" >walk_component</text>
</g>
<g >
<title>kernfs_iop_permission (475,818 ms, 5.28%)</title><rect x="1059.9" y="133" width="62.3" height="15.0" fill="rgb(87,87,240)" rx="2" ry="2" />
<text  x="1062.93" y="143.5" >kernfs..</text>
</g>
<g >
<title>schedule (15,024 ms, 0.17%)</title><rect x="15.0" y="165" width="1.9" height="15.0" fill="rgb(135,135,207)" rx="2" ry="2" />
<text  x="17.98" y="175.5" ></text>
</g>
<g >
<title>__x64_sys_openat2 (7,492,297 ms, 83.10%)</title><rect x="79.4" y="229" width="980.5" height="15.0" fill="rgb(91,91,219)" rx="2" ry="2" />
<text  x="82.37" y="239.5" >__x64_sys_openat2</text>
</g>
<g >
<title>path_lookupat (380,774 ms, 4.22%)</title><rect x="16.9" y="165" width="49.9" height="15.0" fill="rgb(108,108,223)" rx="2" ry="2" />
<text  x="19.95" y="175.5" >path_..</text>
</g>
<g >
<title>schedule (438,828 ms, 4.87%)</title><rect x="1122.2" y="85" width="57.4" height="15.0" fill="rgb(107,107,222)" rx="2" ry="2" />
<text  x="1125.20" y="95.5" >schedule</text>
</g>
<g >
<title>__schedule (340,874 ms, 3.78%)</title><rect x="1015.3" y="85" width="44.6" height="15.0" fill="rgb(112,112,244)" rx="2" ry="2" />
<text  x="1018.31" y="95.5" >__sc..</text>
</g>
<g >
<title>vfs_fstat (38,069 ms, 0.42%)</title><rect x="10.0" y="213" width="5.0" height="15.0" fill="rgb(112,112,195)" rx="2" ry="2" />
<text  x="13.00" y="223.5" ></text>
</g>
<g >
<title>__schedule (39,640 ms, 0.44%)</title><rect x="1184.8" y="85" width="5.2" height="15.0" fill="rgb(131,131,207)" rx="2" ry="2" />
<text  x="1187.81" y="95.5" ></text>
</g>
<g >
<title>kernfs_iop_getattr (38,069 ms, 0.42%)</title><rect x="10.0" y="197" width="5.0" height="15.0" fill="rgb(109,109,234)" rx="2" ry="2" />
<text  x="13.00" y="207.5" ></text>
</g>
<g >
<title>schedule (39,640 ms, 0.44%)</title><rect x="1184.8" y="101" width="5.2" height="15.0" fill="rgb(103,103,215)" rx="2" ry="2" />
<text  x="1187.81" y="111.5" ></text>
</g>
<g >
<title>may_open (340,874 ms, 3.78%)</title><rect x="1015.3" y="165" width="44.6" height="15.0" fill="rgb(94,94,199)" rx="2" ry="2" />
<text  x="1018.31" y="175.5" >may_..</text>
</g>
<g >
<title>__schedule (190,697 ms, 2.12%)</title><rect x="16.9" y="69" width="25.0" height="15.0" fill="rgb(99,99,219)" rx="2" ry="2" />
<text  x="19.95" y="79.5" >_..</text>
</g>
<g >
<title>__schedule (15,255 ms, 0.17%)</title><rect x="64.8" y="69" width="2.0" height="15.0" fill="rgb(124,124,242)" rx="2" ry="2" />
<text  x="67.79" y="79.5" ></text>
</g>
<g >
<title>finish_task_switch.isra.0 (475,818 ms, 5.28%)</title><rect x="1059.9" y="69" width="62.3" height="15.0" fill="rgb(129,129,194)" rx="2" ry="2" />
<text  x="1062.93" y="79.5" >finish..</text>
</g>
<g >
<title>kernfs_iop_permission (39,640 ms, 0.44%)</title><rect x="1184.8" y="133" width="5.2" height="15.0" fill="rgb(96,96,225)" rx="2" ry="2" />
<text  x="1187.81" y="143.5" ></text>
</g>
<g >
<title>finish_task_switch.isra.0 (340,930 ms, 3.78%)</title><rect x="970.7" y="85" width="44.6" height="15.0" fill="rgb(98,98,191)" rx="2" ry="2" />
<text  x="973.69" y="95.5" >fini..</text>
</g>
<g >
<title>link_path_walk.part.0.constprop.0 (6,810,493 ms, 75.54%)</title><rect x="79.4" y="165" width="891.3" height="15.0" fill="rgb(97,97,243)" rx="2" ry="2" />
<text  x="82.37" y="175.5" >link_path_walk.part.0.constprop.0</text>
</g>
<g >
<title>__schedule (95,609 ms, 1.06%)</title><rect x="66.8" y="149" width="12.5" height="15.0" fill="rgb(108,108,217)" rx="2" ry="2" />
<text  x="69.79" y="159.5" ></text>
</g>
<g >
<title>schedule (3,578,702 ms, 39.69%)</title><rect x="79.4" y="101" width="468.3" height="15.0" fill="rgb(84,84,207)" rx="2" ry="2" />
<text  x="82.37" y="111.5" >schedule</text>
</g>
<g >
<title>rwsem_down_read_slowpath (95,609 ms, 1.06%)</title><rect x="66.8" y="181" width="12.5" height="15.0" fill="rgb(103,103,221)" rx="2" ry="2" />
<text  x="69.79" y="191.5" ></text>
</g>
<g >
<title>walk_component (15,753 ms, 0.17%)</title><rect x="64.7" y="149" width="2.1" height="15.0" fill="rgb(116,116,202)" rx="2" ry="2" />
<text  x="67.72" y="159.5" ></text>
</g>
<g >
<title>do_sys_openat2 (7,492,297 ms, 83.10%)</title><rect x="79.4" y="213" width="980.5" height="15.0" fill="rgb(97,97,228)" rx="2" ry="2" />
<text  x="82.37" y="223.5" >do_sys_openat2</text>
</g>
<g >
<title>rwsem_down_read_slowpath (174,324 ms, 1.93%)</title><rect x="41.9" y="85" width="22.8" height="15.0" fill="rgb(127,127,231)" rx="2" ry="2" />
<text  x="44.91" y="95.5" >r..</text>
</g>
<g >
<title>schedule (340,874 ms, 3.78%)</title><rect x="1015.3" y="101" width="44.6" height="15.0" fill="rgb(98,98,218)" rx="2" ry="2" />
<text  x="1018.31" y="111.5" >sche..</text>
</g>
<g >
<title>schedule (38,069 ms, 0.42%)</title><rect x="10.0" y="165" width="5.0" height="15.0" fill="rgb(108,108,235)" rx="2" ry="2" />
<text  x="13.00" y="175.5" ></text>
</g>
<g >
<title>kernfs_dop_revalidate (15,255 ms, 0.17%)</title><rect x="64.8" y="117" width="2.0" height="15.0" fill="rgb(80,80,222)" rx="2" ry="2" />
<text  x="67.79" y="127.5" ></text>
</g>
<g >
<title>schedule (95,609 ms, 1.06%)</title><rect x="66.8" y="165" width="12.5" height="15.0" fill="rgb(120,120,208)" rx="2" ry="2" />
<text  x="69.79" y="175.5" ></text>
</g>
<g >
<title>rwsem_down_read_slowpath (340,874 ms, 3.78%)</title><rect x="1015.3" y="117" width="44.6" height="15.0" fill="rgb(133,133,230)" rx="2" ry="2" />
<text  x="1018.31" y="127.5" >rwse..</text>
</g>
<g >
<title>lookup_fast (174,324 ms, 1.93%)</title><rect x="41.9" y="117" width="22.8" height="15.0" fill="rgb(125,125,192)" rx="2" ry="2" />
<text  x="44.91" y="127.5" >l..</text>
</g>
<g >
<title>kernfs_iop_permission (190,697 ms, 2.12%)</title><rect x="16.9" y="117" width="25.0" height="15.0" fill="rgb(98,98,221)" rx="2" ry="2" />
<text  x="19.95" y="127.5" >k..</text>
</g>
<g >
<title>do_filp_open (993,882 ms, 11.02%)</title><rect x="1059.9" y="197" width="130.1" height="15.0" fill="rgb(86,86,237)" rx="2" ry="2" />
<text  x="1062.93" y="207.5" >do_filp_open</text>
</g>
<g >
<title>schedule (3,231,792 ms, 35.84%)</title><rect x="547.7" y="85" width="423.0" height="15.0" fill="rgb(119,119,213)" rx="2" ry="2" />
<text  x="550.73" y="95.5" >schedule</text>
</g>
<g >
<title>rwsem_down_read_slowpath (15,255 ms, 0.17%)</title><rect x="64.8" y="101" width="2.0" height="15.0" fill="rgb(83,83,241)" rx="2" ry="2" />
<text  x="67.79" y="111.5" ></text>
</g>
<g >
<title>__schedule (39,564 ms, 0.44%)</title><rect x="1179.6" y="101" width="5.2" height="15.0" fill="rgb(113,113,228)" rx="2" ry="2" />
<text  x="1182.63" y="111.5" ></text>
</g>
<g >
<title>finish_task_switch.isra.0 (438,828 ms, 4.87%)</title><rect x="1122.2" y="53" width="57.4" height="15.0" fill="rgb(121,121,202)" rx="2" ry="2" />
<text  x="1125.20" y="63.5" >finish..</text>
</g>
<g >
<title>__schedule (438,828 ms, 4.87%)</title><rect x="1122.2" y="69" width="57.4" height="15.0" fill="rgb(131,131,211)" rx="2" ry="2" />
<text  x="1125.20" y="79.5" >__sche..</text>
</g>
<g >
<title>all (9,016,251 ms, 100%)</title><rect x="10.0" y="293" width="1180.0" height="15.0" fill="rgb(110,110,204)" rx="2" ry="2" />
<text  x="13.00" y="303.5" ></text>
</g>
<g >
<title>walk_component (174,324 ms, 1.93%)</title><rect x="41.9" y="133" width="22.8" height="15.0" fill="rgb(128,128,216)" rx="2" ry="2" />
<text  x="44.91" y="143.5" >w..</text>
</g>
<g >
<title>finish_task_switch.isra.0 (190,697 ms, 2.12%)</title><rect x="16.9" y="53" width="25.0" height="15.0" fill="rgb(90,90,225)" rx="2" ry="2" />
<text  x="19.95" y="63.5" >f..</text>
</g>
<g >
<title>kubelet (9,016,251 ms, 100.00%)</title><rect x="10.0" y="277" width="1180.0" height="15.0" fill="rgb(136,136,199)" rx="2" ry="2" />
<text  x="13.00" y="287.5" >kubelet</text>
</g>
<g >
<title>lookup_fast (39,564 ms, 0.44%)</title><rect x="1179.6" y="165" width="5.2" height="15.0" fill="rgb(125,125,225)" rx="2" ry="2" />
<text  x="1182.63" y="175.5" ></text>
</g>
<g >
<title>user_path_at_empty (380,774 ms, 4.22%)</title><rect x="16.9" y="197" width="49.9" height="15.0" fill="rgb(93,93,234)" rx="2" ry="2" />
<text  x="19.95" y="207.5" >user_..</text>
</g>
<g >
<title>kernfs_fop_readdir (95,609 ms, 1.06%)</title><rect x="66.8" y="197" width="12.5" height="15.0" fill="rgb(88,88,215)" rx="2" ry="2" />
<text  x="69.79" y="207.5" ></text>
</g>
<g >
<title>kernfs_dop_revalidate (174,324 ms, 1.93%)</title><rect x="41.9" y="101" width="22.8" height="15.0" fill="rgb(96,96,201)" rx="2" ry="2" />
<text  x="44.91" y="111.5" >k..</text>
</g>
<g >
<title>do_syscall_64 (9,016,251 ms, 100.00%)</title><rect x="10.0" y="245" width="1180.0" height="15.0" fill="rgb(104,104,214)" rx="2" ry="2" />
<text  x="13.00" y="255.5" >do_syscall_64</text>
</g>
<g >
<title>link_path_walk.part.0.constprop.0 (914,678 ms, 10.14%)</title><rect x="1059.9" y="165" width="119.7" height="15.0" fill="rgb(105,105,197)" rx="2" ry="2" />
<text  x="1062.93" y="175.5" >link_path_walk..</text>
</g>
<g >
<title>lookup_fast (15,255 ms, 0.17%)</title><rect x="64.8" y="133" width="2.0" height="15.0" fill="rgb(133,133,236)" rx="2" ry="2" />
<text  x="67.79" y="143.5" ></text>
</g>
<g >
<title>rwsem_down_read_slowpath (39,564 ms, 0.44%)</title><rect x="1179.6" y="133" width="5.2" height="15.0" fill="rgb(103,103,209)" rx="2" ry="2" />
<text  x="1182.63" y="143.5" ></text>
</g>
<g >
<title>rwsem_down_read_slowpath (3,578,702 ms, 39.69%)</title><rect x="79.4" y="117" width="468.3" height="15.0" fill="rgb(137,137,217)" rx="2" ry="2" />
<text  x="82.37" y="127.5" >rwsem_down_read_slowpath</text>
</g>
<g >
<title>lookup_fast (438,828 ms, 4.87%)</title><rect x="1122.2" y="133" width="57.4" height="15.0" fill="rgb(87,87,220)" rx="2" ry="2" />
<text  x="1125.20" y="143.5" >lookup..</text>
</g>
<g >
<title>link_path_walk.part.0.constprop.0 (365,021 ms, 4.05%)</title><rect x="16.9" y="149" width="47.8" height="15.0" fill="rgb(81,81,204)" rx="2" ry="2" />
<text  x="19.95" y="159.5" >link..</text>
</g>
<g >
<title>kernfs_dop_revalidate (39,564 ms, 0.44%)</title><rect x="1179.6" y="149" width="5.2" height="15.0" fill="rgb(97,97,223)" rx="2" ry="2" />
<text  x="1182.63" y="159.5" ></text>
</g>
<g >
<title>__do_sys_newfstatat (395,798 ms, 4.39%)</title><rect x="15.0" y="229" width="51.8" height="15.0" fill="rgb(100,100,198)" rx="2" ry="2" />
<text  x="17.98" y="239.5" >__do_..</text>
</g>
<g >
<title>__schedule (174,324 ms, 1.93%)</title><rect x="41.9" y="53" width="22.8" height="15.0" fill="rgb(134,134,191)" rx="2" ry="2" />
<text  x="44.91" y="63.5" >_..</text>
</g>
<g >
<title>inode_permission (340,874 ms, 3.78%)</title><rect x="1015.3" y="149" width="44.6" height="15.0" fill="rgb(132,132,212)" rx="2" ry="2" />
<text  x="1018.31" y="159.5" >inod..</text>
</g>
<g >
<title>schedule (15,255 ms, 0.17%)</title><rect x="64.8" y="85" width="2.0" height="15.0" fill="rgb(91,91,235)" rx="2" ry="2" />
<text  x="67.79" y="95.5" ></text>
</g>
<g >
<title>rwsem_down_read_slowpath (3,231,792 ms, 35.84%)</title><rect x="547.7" y="101" width="423.0" height="15.0" fill="rgb(113,113,241)" rx="2" ry="2" />
<text  x="550.73" y="111.5" >rwsem_down_read_slowpath</text>
</g>
<g >
<title>walk_component (438,828 ms, 4.87%)</title><rect x="1122.2" y="149" width="57.4" height="15.0" fill="rgb(108,108,218)" rx="2" ry="2" />
<text  x="1125.20" y="159.5" >walk_c..</text>
</g>
<g >
<title>__schedule (15,024 ms, 0.17%)</title><rect x="15.0" y="149" width="1.9" height="15.0" fill="rgb(86,86,231)" rx="2" ry="2" />
<text  x="17.98" y="159.5" ></text>
</g>
<g >
<title>finish_task_switch.isra.0 (174,324 ms, 1.93%)</title><rect x="41.9" y="37" width="22.8" height="15.0" fill="rgb(83,83,208)" rx="2" ry="2" />
<text  x="44.91" y="47.5" >f..</text>
</g>
<g >
<title>inode_permission (3,578,702 ms, 39.69%)</title><rect x="79.4" y="149" width="468.3" height="15.0" fill="rgb(124,124,190)" rx="2" ry="2" />
<text  x="82.37" y="159.5" >inode_permission</text>
</g>
<g >
<title>__x64_sys_getdents64 (95,647 ms, 1.06%)</title><rect x="66.8" y="229" width="12.5" height="15.0" fill="rgb(97,97,230)" rx="2" ry="2" />
<text  x="69.78" y="239.5" ></text>
</g>
<g >
<title>do_filp_open (7,492,297 ms, 83.10%)</title><rect x="79.4" y="197" width="980.5" height="15.0" fill="rgb(128,128,193)" rx="2" ry="2" />
<text  x="82.37" y="207.5" >do_filp_open</text>
</g>
<g >
<title>finish_task_switch.isra.0 (39,564 ms, 0.44%)</title><rect x="1179.6" y="85" width="5.2" height="15.0" fill="rgb(131,131,213)" rx="2" ry="2" />
<text  x="1182.63" y="95.5" ></text>
</g>
<g >
<title>rwsem_down_read_slowpath (15,024 ms, 0.17%)</title><rect x="15.0" y="181" width="1.9" height="15.0" fill="rgb(114,114,206)" rx="2" ry="2" />
<text  x="17.98" y="191.5" ></text>
</g>
<g >
<title>__do_sys_newfstat (38,069 ms, 0.42%)</title><rect x="10.0" y="229" width="5.0" height="15.0" fill="rgb(85,85,231)" rx="2" ry="2" />
<text  x="13.00" y="239.5" ></text>
</g>
<g >
<title>__schedule (3,578,702 ms, 39.69%)</title><rect x="79.4" y="85" width="468.3" height="15.0" fill="rgb(118,118,223)" rx="2" ry="2" />
<text  x="82.37" y="95.5" >__schedule</text>
</g>
<g >
<title>finish_task_switch.isra.0 (340,874 ms, 3.78%)</title><rect x="1015.3" y="69" width="44.6" height="15.0" fill="rgb(138,138,214)" rx="2" ry="2" />
<text  x="1018.31" y="79.5" >fini..</text>
</g>
<g >
<title>schedule (340,930 ms, 3.78%)</title><rect x="970.7" y="117" width="44.6" height="15.0" fill="rgb(123,123,204)" rx="2" ry="2" />
<text  x="973.69" y="127.5" >sche..</text>
</g>
<g >
<title>lookup_fast (340,930 ms, 3.78%)</title><rect x="970.7" y="165" width="44.6" height="15.0" fill="rgb(103,103,233)" rx="2" ry="2" />
<text  x="973.69" y="175.5" >look..</text>
</g>
<g >
<title>iterate_dir (95,647 ms, 1.06%)</title><rect x="66.8" y="213" width="12.5" height="15.0" fill="rgb(135,135,243)" rx="2" ry="2" />
<text  x="69.78" y="223.5" ></text>
</g>
<g >
<title>kernfs_iop_permission (340,874 ms, 3.78%)</title><rect x="1015.3" y="133" width="44.6" height="15.0" fill="rgb(126,126,201)" rx="2" ry="2" />
<text  x="1018.31" y="143.5" >kern..</text>
</g>
<g >
<title>inode_permission (475,818 ms, 5.28%)</title><rect x="1059.9" y="149" width="62.3" height="15.0" fill="rgb(139,139,195)" rx="2" ry="2" />
<text  x="1062.93" y="159.5" >inode_..</text>
</g>
<g >
<title>lookup_fast (3,231,792 ms, 35.84%)</title><rect x="547.7" y="133" width="423.0" height="15.0" fill="rgb(90,90,209)" rx="2" ry="2" />
<text  x="550.73" y="143.5" >lookup_fast</text>
</g>
<g >
<title>rwsem_down_read_slowpath (39,640 ms, 0.44%)</title><rect x="1184.8" y="117" width="5.2" height="15.0" fill="rgb(84,84,224)" rx="2" ry="2" />
<text  x="1187.81" y="127.5" ></text>
</g>
<g >
<title>kernfs_iop_permission (3,578,702 ms, 39.69%)</title><rect x="79.4" y="133" width="468.3" height="15.0" fill="rgb(93,93,228)" rx="2" ry="2" />
<text  x="82.37" y="143.5" >kernfs_iop_permission</text>
</g>
<g >
<title>rwsem_down_read_slowpath (340,930 ms, 3.78%)</title><rect x="970.7" y="133" width="44.6" height="15.0" fill="rgb(114,114,227)" rx="2" ry="2" />
<text  x="973.69" y="143.5" >rwse..</text>
</g>
<g >
<title>rwsem_down_read_slowpath (438,828 ms, 4.87%)</title><rect x="1122.2" y="101" width="57.4" height="15.0" fill="rgb(83,83,212)" rx="2" ry="2" />
<text  x="1125.20" y="111.5" >rwsem_..</text>
</g>
<g >
<title>schedule (190,697 ms, 2.12%)</title><rect x="16.9" y="85" width="25.0" height="15.0" fill="rgb(120,120,207)" rx="2" ry="2" />
<text  x="19.95" y="95.5" >s..</text>
</g>
<g >
<title>finish_task_switch.isra.0 (3,578,702 ms, 39.69%)</title><rect x="79.4" y="69" width="468.3" height="15.0" fill="rgb(92,92,204)" rx="2" ry="2" />
<text  x="82.37" y="79.5" >finish_task_switch.isra.0</text>
</g>
<g >
<title>__x64_sys_openat (993,882 ms, 11.02%)</title><rect x="1059.9" y="229" width="130.1" height="15.0" fill="rgb(90,90,228)" rx="2" ry="2" />
<text  x="1062.93" y="239.5" >__x64_sys_openat</text>
</g>
<g >
<title>may_open (39,640 ms, 0.44%)</title><rect x="1184.8" y="165" width="5.2" height="15.0" fill="rgb(82,82,231)" rx="2" ry="2" />
<text  x="1187.81" y="175.5" ></text>
</g>
<g >
<title>finish_task_switch.isra.0 (15,024 ms, 0.17%)</title><rect x="15.0" y="133" width="1.9" height="15.0" fill="rgb(127,127,222)" rx="2" ry="2" />
<text  x="17.98" y="143.5" ></text>
</g>
<g >
<title>kernfs_dop_revalidate (438,828 ms, 4.87%)</title><rect x="1122.2" y="117" width="57.4" height="15.0" fill="rgb(121,121,214)" rx="2" ry="2" />
<text  x="1125.20" y="127.5" >kernfs..</text>
</g>
<g >
<title>finish_task_switch.isra.0 (38,069 ms, 0.42%)</title><rect x="10.0" y="133" width="5.0" height="15.0" fill="rgb(119,119,228)" rx="2" ry="2" />
<text  x="13.00" y="143.5" ></text>
</g>
<g >
<title>inode_permission (190,697 ms, 2.12%)</title><rect x="16.9" y="133" width="25.0" height="15.0" fill="rgb(114,114,226)" rx="2" ry="2" />
<text  x="19.95" y="143.5" >i..</text>
</g>
<g >
<title>__schedule (340,930 ms, 3.78%)</title><rect x="970.7" y="101" width="44.6" height="15.0" fill="rgb(129,129,218)" rx="2" ry="2" />
<text  x="973.69" y="111.5" >__sc..</text>
</g>
<g >
<title>rwsem_down_read_slowpath (475,818 ms, 5.28%)</title><rect x="1059.9" y="117" width="62.3" height="15.0" fill="rgb(113,113,235)" rx="2" ry="2" />
<text  x="1062.93" y="127.5" >rwsem_..</text>
</g>
<g >
<title>path_openat (7,492,297 ms, 83.10%)</title><rect x="79.4" y="181" width="980.5" height="15.0" fill="rgb(103,103,240)" rx="2" ry="2" />
<text  x="82.37" y="191.5" >path_openat</text>
</g>
<g >
<title>__schedule (38,069 ms, 0.42%)</title><rect x="10.0" y="149" width="5.0" height="15.0" fill="rgb(131,131,191)" rx="2" ry="2" />
<text  x="13.00" y="159.5" ></text>
</g>
<g >
<title>filename_lookup (380,774 ms, 4.22%)</title><rect x="16.9" y="181" width="49.9" height="15.0" fill="rgb(98,98,194)" rx="2" ry="2" />
<text  x="19.95" y="191.5" >filen..</text>
</g>
<g >
<title>do_sys_openat2 (993,882 ms, 11.02%)</title><rect x="1059.9" y="213" width="130.1" height="15.0" fill="rgb(118,118,205)" rx="2" ry="2" />
<text  x="1062.93" y="223.5" >do_sys_openat2</text>
</g>
<g >
<title>kernfs_dop_revalidate (340,930 ms, 3.78%)</title><rect x="970.7" y="149" width="44.6" height="15.0" fill="rgb(90,90,195)" rx="2" ry="2" />
<text  x="973.69" y="159.5" >kern..</text>
</g>
<g >
<title>inode_permission (39,640 ms, 0.44%)</title><rect x="1184.8" y="149" width="5.2" height="15.0" fill="rgb(129,129,226)" rx="2" ry="2" />
<text  x="1187.81" y="159.5" ></text>
</g>
<g >
<title>__schedule (475,818 ms, 5.28%)</title><rect x="1059.9" y="85" width="62.3" height="15.0" fill="rgb(133,133,209)" rx="2" ry="2" />
<text  x="1062.93" y="95.5" >__sche..</text>
</g>
<g >
<title>rwsem_down_read_slowpath (38,069 ms, 0.42%)</title><rect x="10.0" y="181" width="5.0" height="15.0" fill="rgb(99,99,242)" rx="2" ry="2" />
<text  x="13.00" y="191.5" ></text>
</g>
<g >
<title>entry_SYSCALL_64_after_hwframe (9,016,251 ms, 100.00%)</title><rect x="10.0" y="261" width="1180.0" height="15.0" fill="rgb(118,118,215)" rx="2" ry="2" />
<text  x="13.00" y="271.5" >entry_SYSCALL_64_after_hwframe</text>
</g>
</g>
</svg>
