<?xml version="1.0" standalone="no"?>
<!DOCTYPE svg PUBLIC "-//W3C//DTD SVG 1.1//EN" "http://www.w3.org/Graphics/SVG/1.1/DTD/svg11.dtd">
<svg version="1.1" width="1200" height="342" onload="init(evt)" viewBox="0 0 1200 342" xmlns="http://www.w3.org/2000/svg" xmlns:xlink="http://www.w3.org/1999/xlink">
<!-- Flame graph stack visualization. See https://github.com/brendangregg/FlameGraph for latest version, and http://www.brendangregg.com/flamegraphs.html for examples. -->
<!-- NOTES:  -->
<defs>
	<linearGradient id="background" y1="0" y2="1" x1="0" x2="0" >
		<stop stop-color="#eeeeee" offset="5%" />
		<stop stop-color="#e0e0ff" offset="95%" />
	</linearGradient>
</defs>
<style type="text/css">
	text { font-family:Verdana; font-size:12px; fill:rgb(0,0,0); }
	#search, #ignorecase { opacity:0.1; cursor:pointer; }
	#search:hover, #search.show, #ignorecase:hover, #ignorecase.show { opacity:1; }
	#subtitle { text-anchor:middle; font-color:rgb(160,160,160); }
	#title { text-anchor:middle; font-size:17px}
	#unzoom { cursor:pointer; }
	#frames > *:hover { stroke:black; stroke-width:0.5; cursor:pointer; }
	.hide { display:none; }
	.parent { opacity:0.5; }
</style>
<script type="text/ecmascript">
<![CDATA[
	"use strict";
	var details, searchbtn, unzoombtn, matchedtxt, svg, searching, currentSearchTerm, ignorecase, ignorecaseBtn;
	function init(evt) {
		details = document.getElementById("details").firstChild;
		searchbtn = document.getElementById("search");
		ignorecaseBtn = document.getElementById("ignorecase");
		unzoombtn = document.getElementById("unzoom");
		matchedtxt = document.getElementById("matched");
		svg = document.getElementsByTagName("svg")[0];
		searching = 0;
		currentSearchTerm = null;

		// use GET parameters to restore a flamegraphs state.
		var params = get_params();
		if (params.x && params.y)
			zoom(find_group(document.querySelector('[x="' + params.x + '"][y="' + params.y + '"]')));
                if (params.s) search(params.s);
	}

	// event listeners
	window.addEventListener("click", function(e) {
		var target = find_group(e.target);
		if (target) {
			if (target.nodeName == "a") {
				if (e.ctrlKey === false) return;
				e.preventDefault();
			}
			if (target.classList.contains("parent")) unzoom(true);
			zoom(target);
			if (!document.querySelector('.parent')) {
				// we have basically done a clearzoom so clear the url
				var params = get_params();
				if (params.x) delete params.x;
				if (params.y) delete params.y;
				history.replaceState(null, null, parse_params(params));
				unzoombtn.classList.add("hide");
				return;
			}

			// set parameters for zoom state
			var el = target.querySelector("rect");
			if (el && el.attributes && el.attributes.y && el.attributes._orig_x) {
				var params = get_params()
				params.x = el.attributes._orig_x.value;
				params.y = el.attributes.y.value;
				history.replaceState(null, null, parse_params(params));
			}
		}
		else if (e.target.id == "unzoom") clearzoom();
		else if (e.target.id == "search") search_prompt();
		else if (e.target.id == "ignorecase") toggle_ignorecase();
	}, false)

	// mouse-over for info
	// show
	window.addEventListener("mouseover", function(e) {
		var target = find_group(e.target);
		if (target) details.nodeValue = "Function: " + g_to_text(target);
	}, false)

	// clear
	window.addEventListener("mouseout", function(e) {
		var target = find_group(e.target);
		if (target) details.nodeValue = ' ';
	}, false)

	// ctrl-F for search
	// ctrl-I to toggle case-sensitive search
	window.addEventListener("keydown",function (e) {
		if (e.keyCode === 114 || (e.ctrlKey && e.keyCode === 70)) {
			e.preventDefault();
			search_prompt();
		}
		else if (e.ctrlKey && e.keyCode === 73) {
			e.preventDefault();
			toggle_ignorecase();
		}
	}, false)

	// functions
	function get_params() {
		var params = {};
		var paramsarr = window.location.search.substr(1).split('&');
		for (var i = 0; i < paramsarr.length; ++i) {
			var tmp = paramsarr[i].split("=");
			if (!tmp[0] || !tmp[1]) continue;
			params[tmp[0]]  = decodeURIComponent(tmp[1]);
		}
		return params;
	}
	function parse_params(params) {
		var uri = "?";
		for (var key in params) {
			uri += key + '=' + encodeURIComponent(params[key]) + '&';
		}
		if (uri.slice(-1) == "&")
			uri = uri.substring(0, uri.length - 1);
		if (uri == '?')
			uri = window.location.href.split('?')[0];
		return uri;
	}
	function find_child(node, selector) {
		var children = node.querySelectorAll(selector);
		if (children.length) return children[0];
	}
	function find_group(node) {
		var parent = node.parentElement;
		if (!parent) return;
		if (parent.id == "frames") return node;
		return find_group(parent);
	}
	function orig_save(e, attr, val) {
		if (e.attributes["_orig_" + attr] != undefined) return;
		if (e.attributes[attr] == undefined) return;
		if (val == undefined) val = e.attributes[attr].value;
		e.setAttribute("_orig_" + attr, val);
	}
	function orig_load(e, attr) {
		if (e.attributes["_orig_"+attr] == undefined) return;
		e.attributes[attr].value = e.attributes["_orig_" + attr].value;
		e.removeAttribute("_orig_"+attr);
	}
	function g_to_text(e) {
		var text = find_child(e, "title").firstChild.nodeValue;
		return (text)
	}
	function g_to_func(e) {
		var func = g_to_text(e);
		// if there's any manipulation we want to do to the function
		// name before it's searched, do it here before returning.
		return (func);
	}
	function update_text(e) {
		var r = find_child(e, "rect");
		var t = find_child(e, "text");
		var w = parseFloat(r.attributes.width.value) -3;
		var txt = find_child(e, "title").textContent.replace(/\([^(]*\)$/,"");
		t.attributes.x.value = parseFloat(r.attributes.x.value) + 3;

		// Smaller than this size won't fit anything
		if (w < 2 * 12 * 0.59) {
			t.textContent = "";
			return;
		}

		t.textContent = txt;
		var sl = t.getSubStringLength(0, txt.length);
		// check if only whitespace or if we can fit the entire string into width w
		if (/^ *$/.test(txt) || sl < w)
			return;

		// this isn't perfect, but gives a good starting point
		// and avoids calling getSubStringLength too often
		var start = Math.floor((w/sl) * txt.length);
		for (var x = start; x > 0; x = x-2) {
			if (t.getSubStringLength(0, x + 2) <= w) {
				t.textContent = txt.substring(0, x) + "..";
				return;
			}
		}
		t.textContent = "";
	}

	// zoom
	function zoom_reset(e) {
		if (e.attributes != undefined) {
			orig_load(e, "x");
			orig_load(e, "width");
		}
		if (e.childNodes == undefined) return;
		for (var i = 0, c = e.childNodes; i < c.length; i++) {
			zoom_reset(c[i]);
		}
	}
	function zoom_child(e, x, ratio) {
		if (e.attributes != undefined) {
			if (e.attributes.x != undefined) {
				orig_save(e, "x");
				e.attributes.x.value = (parseFloat(e.attributes.x.value) - x - 10) * ratio + 10;
				if (e.tagName == "text")
					e.attributes.x.value = find_child(e.parentNode, "rect[x]").attributes.x.value + 3;
			}
			if (e.attributes.width != undefined) {
				orig_save(e, "width");
				e.attributes.width.value = parseFloat(e.attributes.width.value) * ratio;
			}
		}

		if (e.childNodes == undefined) return;
		for (var i = 0, c = e.childNodes; i < c.length; i++) {
			zoom_child(c[i], x - 10, ratio);
		}
	}
	function zoom_parent(e) {
		if (e.attributes) {
			if (e.attributes.x != undefined) {
				orig_save(e, "x");
				e.attributes.x.value = 10;
			}
			if (e.attributes.width != undefined) {
				orig_save(e, "width");
				e.attributes.width.value = parseInt(svg.width.baseVal.value) - (10 * 2);
			}
		}
		if (e.childNodes == undefined) return;
		for (var i = 0, c = e.childNodes; i < c.length; i++) {
			zoom_parent(c[i]);
		}
	}
	function zoom(node) {
		var attr = find_child(node, "rect").attributes;
		var width = parseFloat(attr.width.value);
		var xmin = parseFloat(attr.x.value);
		var xmax = parseFloat(xmin + width);
		var ymin = parseFloat(attr.y.value);
		var ratio = (svg.width.baseVal.value - 2 * 10) / width;

		// XXX: Workaround for JavaScript float issues (fix me)
		var fudge = 0.0001;

		unzoombtn.classList.remove("hide");

		var el = document.getElementById("frames").children;
		for (var i = 0; i < el.length; i++) {
			var e = el[i];
			var a = find_child(e, "rect").attributes;
			var ex = parseFloat(a.x.value);
			var ew = parseFloat(a.width.value);
			var upstack;
			// Is it an ancestor
			if (0 == 0) {
				upstack = parseFloat(a.y.value) > ymin;
			} else {
				upstack = parseFloat(a.y.value) < ymin;
			}
			if (upstack) {
				// Direct ancestor
				if (ex <= xmin && (ex+ew+fudge) >= xmax) {
					e.classList.add("parent");
					zoom_parent(e);
					update_text(e);
				}
				// not in current path
				else
					e.classList.add("hide");
			}
			// Children maybe
			else {
				// no common path
				if (ex < xmin || ex + fudge >= xmax) {
					e.classList.add("hide");
				}
				else {
					zoom_child(e, xmin, ratio);
					update_text(e);
				}
			}
		}
		search();
	}
	function unzoom(dont_update_text) {
		unzoombtn.classList.add("hide");
		var el = document.getElementById("frames").children;
		for(var i = 0; i < el.length; i++) {
			el[i].classList.remove("parent");
			el[i].classList.remove("hide");
			zoom_reset(el[i]);
			if(!dont_update_text) update_text(el[i]);
		}
		search();
	}
	function clearzoom() {
		unzoom();

		// remove zoom state
		var params = get_params();
		if (params.x) delete params.x;
		if (params.y) delete params.y;
		history.replaceState(null, null, parse_params(params));
	}

	// search
	function toggle_ignorecase() {
		ignorecase = !ignorecase;
		if (ignorecase) {
			ignorecaseBtn.classList.add("show");
		} else {
			ignorecaseBtn.classList.remove("show");
		}
		reset_search();
		search();
	}
	function reset_search() {
		var el = document.querySelectorAll("#frames rect");
		for (var i = 0; i < el.length; i++) {
			orig_load(el[i], "fill")
		}
		var params = get_params();
		delete params.s;
		history.replaceState(null, null, parse_params(params));
	}
	function search_prompt() {
		if (!searching) {
			var term = prompt("Enter a search term (regexp " +
			    "allowed, eg: ^ext4_)"
			    + (ignorecase ? ", ignoring case" : "")
			    + "\nPress Ctrl-i to toggle case sensitivity", "");
			if (term != null) search(term);
		} else {
			reset_search();
			searching = 0;
			currentSearchTerm = null;
			searchbtn.classList.remove("show");
			searchbtn.firstChild.nodeValue = "Search"
			matchedtxt.classList.add("hide");
			matchedtxt.firstChild.nodeValue = ""
		}
	}
	function search(term) {
		if (term) currentSearchTerm = term;

		var re = new RegExp(currentSearchTerm, ignorecase ? 'i' : '');
		var el = document.getElementById("frames").children;
		var matches = new Object();
		var maxwidth = 0;
		for (var i = 0; i < el.length; i++) {
			var e = el[i];
			var func = g_to_func(e);
			var rect = find_child(e, "rect");
			if (func == null || rect == null)
				continue;

			// Save max width. Only works as we have a root frame
			var w = parseFloat(rect.attributes.width.value);
			if (w > maxwidth)
				maxwidth = w;

			if (func.match(re)) {
				// highlight
				var x = parseFloat(rect.attributes.x.value);
				orig_save(rect, "fill");
				rect.attributes.fill.value = "rgb(230,0,230)";

				// remember matches
				if (matches[x] == undefined) {
					matches[x] = w;
				} else {
					if (w > matches[x]) {
						// overwrite with parent
						matches[x] = w;
					}
				}
				searching = 1;
			}
		}
		if (!searching)
			return;
		var params = get_params();
		params.s = currentSearchTerm;
		history.replaceState(null, null, parse_params(params));

		searchbtn.classList.add("show");
		searchbtn.firstChild.nodeValue = "Reset Search";

		// calculate percent matched, excluding vertical overlap
		var count = 0;
		var lastx = -1;
		var lastw = 0;
		var keys = Array();
		for (k in matches) {
			if (matches.hasOwnProperty(k))
				keys.push(k);
		}
		// sort the matched frames by their x location
		// ascending, then width descending
		keys.sort(function(a, b){
			return a - b;
		});
		// Step through frames saving only the biggest bottom-up frames
		// thanks to the sort order. This relies on the tree property
		// where children are always smaller than their parents.
		var fudge = 0.0001;	// JavaScript floating point
		for (var k in keys) {
			var x = parseFloat(keys[k]);
			var w = matches[keys[k]];
			if (x >= lastx + lastw - fudge) {
				count += w;
				lastx = x;
				lastw = w;
			}
		}
		// display matched percent
		matchedtxt.classList.remove("hide");
		var pct = 100 * count / maxwidth;
		if (pct != 100) pct = pct.toFixed(1)
		matchedtxt.firstChild.nodeValue = "Matched: " + pct + "%";
	}
]]>
</script>
<rect x="0.0" y="0" width="1200.0" height="342.0" fill="url(#background)"  />
<text id="title" x="600.00" y="24" >Flame Graph</text>
<text id="details" x="10.00" y="325" > </text>
<text id="unzoom" x="10.00" y="24" class="hide">Reset Zoom</text>
<text id="search" x="1090.00" y="24" >Search</text>
<text id="ignorecase" x="1174.00" y="24" >ic</text>
<text id="matched" x="1090.00" y="325" > </text>
<g id="frames">
<g >
<title>finish_task_switch.isra.0 (1,198 ms, 0.02%)</title><rect x="103.8" y="85" width="0.2" height="15.0" fill="rgb(91,91,210)" rx="2" ry="2" />
<text  x="106.80" y="95.5" ></text>
</g>
<g >
<title>rwsem_down_read_slowpath (2,020,317 ms, 29.19%)</title><rect x="545.6" y="101" width="344.5" height="15.0" fill="rgb(97,97,223)" rx="2" ry="2" />
<text  x="548.58" y="111.5" >rwsem_down_read_slowpath</text>
</g>
<g >
<title>schedule (234,135 ms, 3.38%)</title><rect x="24.1" y="85" width="39.9" height="15.0" fill="rgb(135,135,237)" rx="2" ry="2" />
<text  x="27.06" y="95.5" >sch..</text>
</g>
<g >
<title>__schedule (841 ms, 0.01%)</title><rect x="98.7" y="69" width="0.1" height="15.0" fill="rgb(84,84,211)" rx="2" ry="2" />
<text  x="101.67" y="79.5" ></text>
</g>
<g >
<title>schedule (389,677 ms, 5.63%)</title><rect x="957.4" y="101" width="66.4" height="15.0" fill="rgb(99,99,208)" rx="2" ry="2" />
<text  x="960.38" y="111.5" >schedule</text>
</g>
<g >
<title>rwsem_down_read_slowpath (388,836 ms, 5.62%)</title><rect x="891.1" y="133" width="66.3" height="15.0" fill="rgb(102,102,215)" rx="2" ry="2" />
<text  x="894.08" y="143.5" >rwsem_d..</text>
</g>
<g >
<title>user_path_at_empty (945 ms, 0.01%)</title><rect x="133.7" y="197" width="0.2" height="15.0" fill="rgb(135,135,190)" rx="2" ry="2" />
<text  x="136.70" y="207.5" ></text>
</g>
<g >
<title>rwsem_down_read_slowpath (452,970 ms, 6.55%)</title><rect x="1023.9" y="117" width="77.2" height="15.0" fill="rgb(89,89,191)" rx="2" ry="2" />
<text  x="1026.89" y="127.5" >rwsem_do..</text>
</g>
<g >
<title>__schedule (395,305 ms, 5.71%)</title><rect x="1101.2" y="69" width="67.4" height="15.0" fill="rgb(106,106,221)" rx="2" ry="2" />
<text  x="1104.22" y="79.5" >__sched..</text>
</g>
<g >
<title>__x64_sys_inotify_add_watch (990 ms, 0.01%)</title><rect x="133.7" y="229" width="0.2" height="15.0" fill="rgb(132,132,206)" rx="2" ry="2" />
<text  x="136.69" y="239.5" ></text>
</g>
<g >
<title>__schedule (1,198 ms, 0.02%)</title><rect x="103.8" y="101" width="0.2" height="15.0" fill="rgb(100,100,222)" rx="2" ry="2" />
<text  x="106.80" y="111.5" ></text>
</g>
<g >
<title>rwsem_down_read_slowpath (1,198 ms, 0.02%)</title><rect x="103.8" y="133" width="0.2" height="15.0" fill="rgb(123,123,227)" rx="2" ry="2" />
<text  x="106.80" y="143.5" ></text>
</g>
<g >
<title>__schedule (452,970 ms, 6.55%)</title><rect x="1023.9" y="85" width="77.2" height="15.0" fill="rgb(116,116,211)" rx="2" ry="2" />
<text  x="1026.89" y="95.5" >__schedule</text>
</g>
<g >
<title>finish_task_switch.isra.0 (389,677 ms, 5.63%)</title><rect x="957.4" y="69" width="66.4" height="15.0" fill="rgb(82,82,212)" rx="2" ry="2" />
<text  x="960.38" y="79.5" >finish_..</text>
</g>
<g >
<title>rwsem_down_read_slowpath (2,414,261 ms, 34.89%)</title><rect x="133.9" y="117" width="411.7" height="15.0" fill="rgb(136,136,208)" rx="2" ry="2" />
<text  x="136.89" y="127.5" >rwsem_down_read_slowpath</text>
</g>
<g >
<title>kernfs_iop_getattr (29,227 ms, 0.42%)</title><rect x="19.1" y="197" width="5.0" height="15.0" fill="rgb(88,88,192)" rx="2" ry="2" />
<text  x="22.08" y="207.5" ></text>
</g>
<g >
<title>inode_permission (2,414,261 ms, 34.89%)</title><rect x="133.9" y="149" width="411.7" height="15.0" fill="rgb(87,87,229)" rx="2" ry="2" />
<text  x="136.89" y="159.5" >inode_permission</text>
</g>
<g >
<title>__mutex_lock.constprop.0 (14,487 ms, 0.21%)</title><rect x="1187.5" y="165" width="2.5" height="15.0" fill="rgb(91,91,204)" rx="2" ry="2" />
<text  x="1190.53" y="175.5" ></text>
</g>
<g >
<title>iterate_dir (174,129 ms, 2.52%)</title><rect x="104.0" y="213" width="29.7" height="15.0" fill="rgb(118,118,191)" rx="2" ry="2" />
<text  x="107.00" y="223.5" >it..</text>
</g>
<g >
<title>link_path_walk.part.0.constprop.0 (860 ms, 0.01%)</title><rect x="133.7" y="149" width="0.1" height="15.0" fill="rgb(109,109,227)" rx="2" ry="2" />
<text  x="136.70" y="159.5" ></text>
</g>
<g >
<title>link_path_walk.part.0.constprop.0 (848,819 ms, 12.27%)</title><rect x="1023.9" y="165" width="144.7" height="15.0" fill="rgb(138,138,244)" rx="2" ry="2" />
<text  x="1026.89" y="175.5" >link_path_walk.par..</text>
</g>
<g >
<title>rwsem_down_read_slowpath (5,939 ms, 0.09%)</title><rect x="890.1" y="133" width="1.0" height="15.0" fill="rgb(130,130,198)" rx="2" ry="2" />
<text  x="893.07" y="143.5" ></text>
</g>
<g >
<title>finish_task_switch.isra.0 (388,836 ms, 5.62%)</title><rect x="891.1" y="85" width="66.3" height="15.0" fill="rgb(132,132,243)" rx="2" ry="2" />
<text  x="894.08" y="95.5" >finish_..</text>
</g>
<g >
<title>inode_permission (55,626 ms, 0.80%)</title><rect x="1178.0" y="149" width="9.5" height="15.0" fill="rgb(113,113,197)" rx="2" ry="2" />
<text  x="1181.04" y="159.5" ></text>
</g>
<g >
<title>schedule (29,227 ms, 0.42%)</title><rect x="19.1" y="165" width="5.0" height="15.0" fill="rgb(99,99,206)" rx="2" ry="2" />
<text  x="22.08" y="175.5" ></text>
</g>
<g >
<title>filename_lookup (468,821 ms, 6.77%)</title><rect x="24.1" y="181" width="79.9" height="15.0" fill="rgb(113,113,211)" rx="2" ry="2" />
<text  x="27.06" y="191.5" >filename_..</text>
</g>
<g >
<title>__schedule (5,939 ms, 0.09%)</title><rect x="890.1" y="101" width="1.0" height="15.0" fill="rgb(83,83,196)" rx="2" ry="2" />
<text  x="893.07" y="111.5" ></text>
</g>
<g >
<title>rwsem_down_read_slowpath (389,677 ms, 5.63%)</title><rect x="957.4" y="117" width="66.4" height="15.0" fill="rgb(99,99,225)" rx="2" ry="2" />
<text  x="960.38" y="127.5" >rwsem_d..</text>
</g>
<g >
<title>kernfs_dop_revalidate (55,274 ms, 0.80%)</title><rect x="1168.6" y="149" width="9.4" height="15.0" fill="rgb(132,132,201)" rx="2" ry="2" />
<text  x="1171.62" y="159.5" ></text>
</g>
<g >
<title>__schedule (174,129 ms, 2.52%)</title><rect x="104.0" y="149" width="29.7" height="15.0" fill="rgb(136,136,212)" rx="2" ry="2" />
<text  x="107.00" y="159.5" >__..</text>
</g>
<g >
<title>kernfs_iop_permission (389,677 ms, 5.63%)</title><rect x="957.4" y="133" width="66.4" height="15.0" fill="rgb(89,89,239)" rx="2" ry="2" />
<text  x="960.38" y="143.5" >kernfs_..</text>
</g>
<g >
<title>schedule (388,836 ms, 5.62%)</title><rect x="891.1" y="117" width="66.3" height="15.0" fill="rgb(121,121,215)" rx="2" ry="2" />
<text  x="894.08" y="127.5" >schedule</text>
</g>
<g >
<title>finish_task_switch.isra.0 (53,248 ms, 0.77%)</title><rect x="10.0" y="133" width="9.1" height="15.0" fill="rgb(113,113,230)" rx="2" ry="2" />
<text  x="13.00" y="143.5" ></text>
</g>
<g >
<title>finish_task_switch.isra.0 (29,245 ms, 0.42%)</title><rect x="98.8" y="53" width="5.0" height="15.0" fill="rgb(125,125,196)" rx="2" ry="2" />
<text  x="101.81" y="63.5" ></text>
</g>
<g >
<title>__schedule (29,245 ms, 0.42%)</title><rect x="98.8" y="69" width="5.0" height="15.0" fill="rgb(130,130,222)" rx="2" ry="2" />
<text  x="101.81" y="79.5" ></text>
</g>
<g >
<title>rwsem_down_read_slowpath (55,626 ms, 0.80%)</title><rect x="1178.0" y="117" width="9.5" height="15.0" fill="rgb(134,134,220)" rx="2" ry="2" />
<text  x="1181.04" y="127.5" ></text>
</g>
<g >
<title>all (6,920,337 ms, 100%)</title><rect x="10.0" y="293" width="1180.0" height="15.0" fill="rgb(96,96,206)" rx="2" ry="2" />
<text  x="13.00" y="303.5" ></text>
</g>
<g >
<title>kernfs_dop_revalidate (29,245 ms, 0.42%)</title><rect x="98.8" y="117" width="5.0" height="15.0" fill="rgb(127,127,220)" rx="2" ry="2" />
<text  x="101.81" y="127.5" ></text>
</g>
<g >
<title>kernfs_dop_revalidate (388,836 ms, 5.62%)</title><rect x="891.1" y="149" width="66.3" height="15.0" fill="rgb(82,82,197)" rx="2" ry="2" />
<text  x="894.08" y="159.5" >kernfs_..</text>
</g>
<g >
<title>lookup_fast (29,245 ms, 0.42%)</title><rect x="98.8" y="133" width="5.0" height="15.0" fill="rgb(117,117,208)" rx="2" ry="2" />
<text  x="101.81" y="143.5" ></text>
</g>
<g >
<title>kernfs_iop_permission (452,970 ms, 6.55%)</title><rect x="1023.9" y="133" width="77.2" height="15.0" fill="rgb(109,109,190)" rx="2" ry="2" />
<text  x="1026.89" y="143.5" >kernfs_i..</text>
</g>
<g >
<title>__lookup_slow (841 ms, 0.01%)</title><rect x="98.7" y="133" width="0.1" height="15.0" fill="rgb(120,120,200)" rx="2" ry="2" />
<text  x="101.67" y="143.5" ></text>
</g>
<g >
<title>schedule (5,939 ms, 0.09%)</title><rect x="890.1" y="117" width="1.0" height="15.0" fill="rgb(133,133,200)" rx="2" ry="2" />
<text  x="893.07" y="127.5" ></text>
</g>
<g >
<title>inode_permission (452,970 ms, 6.55%)</title><rect x="1023.9" y="149" width="77.2" height="15.0" fill="rgb(109,109,226)" rx="2" ry="2" />
<text  x="1026.89" y="159.5" >inode_pe..</text>
</g>
<g >
<title>__do_sys_newfstatat (498,048 ms, 7.20%)</title><rect x="19.1" y="229" width="84.9" height="15.0" fill="rgb(98,98,217)" rx="2" ry="2" />
<text  x="22.08" y="239.5" >__do_sys_..</text>
</g>
<g >
<title>inode_permission (234,135 ms, 3.38%)</title><rect x="24.1" y="133" width="39.9" height="15.0" fill="rgb(108,108,222)" rx="2" ry="2" />
<text  x="27.06" y="143.5" >ino..</text>
</g>
<g >
<title>__x64_sys_recvfrom (14,487 ms, 0.21%)</title><rect x="1187.5" y="229" width="2.5" height="15.0" fill="rgb(106,106,204)" rx="2" ry="2" />
<text  x="1190.53" y="239.5" ></text>
</g>
<g >
<title>do_sys_openat2 (5,219,349 ms, 75.42%)</title><rect x="133.9" y="213" width="889.9" height="15.0" fill="rgb(115,115,232)" rx="2" ry="2" />
<text  x="136.86" y="223.5" >do_sys_openat2</text>
</g>
<g >
<title>__schedule (55,274 ms, 0.80%)</title><rect x="1168.6" y="101" width="9.4" height="15.0" fill="rgb(99,99,231)" rx="2" ry="2" />
<text  x="1171.62" y="111.5" ></text>
</g>
<g >
<title>__schedule (55,626 ms, 0.80%)</title><rect x="1178.0" y="85" width="9.5" height="15.0" fill="rgb(117,117,217)" rx="2" ry="2" />
<text  x="1181.04" y="95.5" ></text>
</g>
<g >
<title>schedule (2,414,261 ms, 34.89%)</title><rect x="133.9" y="101" width="411.7" height="15.0" fill="rgb(99,99,219)" rx="2" ry="2" />
<text  x="136.89" y="111.5" >schedule</text>
</g>
<g >
<title>finish_task_switch.isra.0 (452,970 ms, 6.55%)</title><rect x="1023.9" y="69" width="77.2" height="15.0" fill="rgb(139,139,191)" rx="2" ry="2" />
<text  x="1026.89" y="79.5" >finish_t..</text>
</g>
<g >
<title>netlink_dump (14,487 ms, 0.21%)</title><rect x="1187.5" y="181" width="2.5" height="15.0" fill="rgb(102,102,238)" rx="2" ry="2" />
<text  x="1190.53" y="191.5" ></text>
</g>
<g >
<title>schedule (14,487 ms, 0.21%)</title><rect x="1187.5" y="133" width="2.5" height="15.0" fill="rgb(119,119,218)" rx="2" ry="2" />
<text  x="1190.53" y="143.5" ></text>
</g>
<g >
<title>may_open (55,626 ms, 0.80%)</title><rect x="1178.0" y="165" width="9.5" height="15.0" fill="rgb(106,106,217)" rx="2" ry="2" />
<text  x="1181.04" y="175.5" ></text>
</g>
<g >
<title>__x64_sys_openat (960,082 ms, 13.87%)</title><rect x="1023.8" y="229" width="163.7" height="15.0" fill="rgb(83,83,217)" rx="2" ry="2" />
<text  x="1026.82" y="239.5" >__x64_sys_openat</text>
</g>
<g >
<title>schedule (2,020,317 ms, 29.19%)</title><rect x="545.6" y="85" width="344.5" height="15.0" fill="rgb(106,106,203)" rx="2" ry="2" />
<text  x="548.58" y="95.5" >schedule</text>
</g>
<g >
<title>finish_task_switch.isra.0 (2,414,261 ms, 34.89%)</title><rect x="133.9" y="69" width="411.7" height="15.0" fill="rgb(127,127,233)" rx="2" ry="2" />
<text  x="136.89" y="79.5" >finish_task_switch.isra.0</text>
</g>
<g >
<title>rwsem_down_read_slowpath (55,274 ms, 0.80%)</title><rect x="1168.6" y="133" width="9.4" height="15.0" fill="rgb(128,128,243)" rx="2" ry="2" />
<text  x="1171.62" y="143.5" ></text>
</g>
<g >
<title>kernfs_iop_permission (234,135 ms, 3.38%)</title><rect x="24.1" y="117" width="39.9" height="15.0" fill="rgb(104,104,213)" rx="2" ry="2" />
<text  x="27.06" y="127.5" >ker..</text>
</g>
<g >
<title>__x64_sys_getdents64 (174,129 ms, 2.52%)</title><rect x="104.0" y="229" width="29.7" height="15.0" fill="rgb(86,86,223)" rx="2" ry="2" />
<text  x="107.00" y="239.5" >__..</text>
</g>
<g >
<title>inotify_find_inode (990 ms, 0.01%)</title><rect x="133.7" y="213" width="0.2" height="15.0" fill="rgb(123,123,220)" rx="2" ry="2" />
<text  x="136.69" y="223.5" ></text>
</g>
<g >
<title>path_lookupat (468,821 ms, 6.77%)</title><rect x="24.1" y="165" width="79.9" height="15.0" fill="rgb(81,81,212)" rx="2" ry="2" />
<text  x="27.06" y="175.5" >path_look..</text>
</g>
<g >
<title>finish_task_switch.isra.0 (14,487 ms, 0.21%)</title><rect x="1187.5" y="101" width="2.5" height="15.0" fill="rgb(116,116,226)" rx="2" ry="2" />
<text  x="1190.53" y="111.5" ></text>
</g>
<g >
<title>netlink_recvmsg (14,487 ms, 0.21%)</title><rect x="1187.5" y="197" width="2.5" height="15.0" fill="rgb(134,134,203)" rx="2" ry="2" />
<text  x="1190.53" y="207.5" ></text>
</g>
<g >
<title>__schedule (388,836 ms, 5.62%)</title><rect x="891.1" y="101" width="66.3" height="15.0" fill="rgb(130,130,195)" rx="2" ry="2" />
<text  x="894.08" y="111.5" >__sched..</text>
</g>
<g >
<title>__schedule (2,414,261 ms, 34.89%)</title><rect x="133.9" y="85" width="411.7" height="15.0" fill="rgb(119,119,199)" rx="2" ry="2" />
<text  x="136.89" y="95.5" >__schedule</text>
</g>
<g >
<title>schedule (55,626 ms, 0.80%)</title><rect x="1178.0" y="101" width="9.5" height="15.0" fill="rgb(118,118,240)" rx="2" ry="2" />
<text  x="1181.04" y="111.5" ></text>
</g>
<g >
<title>schedule (203,383 ms, 2.94%)</title><rect x="64.0" y="69" width="34.7" height="15.0" fill="rgb(139,139,208)" rx="2" ry="2" />
<text  x="66.99" y="79.5" >sc..</text>
</g>
<g >
<title>__schedule (14,487 ms, 0.21%)</title><rect x="1187.5" y="117" width="2.5" height="15.0" fill="rgb(113,113,194)" rx="2" ry="2" />
<text  x="1190.53" y="127.5" ></text>
</g>
<g >
<title>kernfs_iop_getattr (53,248 ms, 0.77%)</title><rect x="10.0" y="197" width="9.1" height="15.0" fill="rgb(80,80,190)" rx="2" ry="2" />
<text  x="13.00" y="207.5" ></text>
</g>
<g >
<title>rwsem_down_read_slowpath (29,245 ms, 0.42%)</title><rect x="98.8" y="101" width="5.0" height="15.0" fill="rgb(102,102,233)" rx="2" ry="2" />
<text  x="101.81" y="111.5" ></text>
</g>
<g >
<title>kernfs_fop_readdir (174,129 ms, 2.52%)</title><rect x="104.0" y="197" width="29.7" height="15.0" fill="rgb(85,85,212)" rx="2" ry="2" />
<text  x="107.00" y="207.5" >ke..</text>
</g>
<g >
<title>walk_component (203,403 ms, 2.94%)</title><rect x="64.0" y="133" width="34.7" height="15.0" fill="rgb(86,86,195)" rx="2" ry="2" />
<text  x="66.99" y="143.5" >wa..</text>
</g>
<g >
<title>finish_task_switch.isra.0 (55,274 ms, 0.80%)</title><rect x="1168.6" y="85" width="9.4" height="15.0" fill="rgb(131,131,229)" rx="2" ry="2" />
<text  x="1171.62" y="95.5" ></text>
</g>
<g >
<title>kernfs_iop_permission (2,414,261 ms, 34.89%)</title><rect x="133.9" y="133" width="411.7" height="15.0" fill="rgb(81,81,199)" rx="2" ry="2" />
<text  x="136.89" y="143.5" >kernfs_iop_permission</text>
</g>
<g >
<title>__schedule (234,135 ms, 3.38%)</title><rect x="24.1" y="69" width="39.9" height="15.0" fill="rgb(110,110,205)" rx="2" ry="2" />
<text  x="27.06" y="79.5" >__s..</text>
</g>
<g >
<title>rwsem_down_read_slowpath (234,135 ms, 3.38%)</title><rect x="24.1" y="101" width="39.9" height="15.0" fill="rgb(96,96,206)" rx="2" ry="2" />
<text  x="27.06" y="111.5" >rws..</text>
</g>
<g >
<title>rwsem_down_read_slowpath (395,305 ms, 5.71%)</title><rect x="1101.2" y="101" width="67.4" height="15.0" fill="rgb(103,103,201)" rx="2" ry="2" />
<text  x="1104.22" y="111.5" >rwsem_d..</text>
</g>
<g >
<title>schedule (53,248 ms, 0.77%)</title><rect x="10.0" y="165" width="9.1" height="15.0" fill="rgb(138,138,206)" rx="2" ry="2" />
<text  x="13.00" y="175.5" ></text>
</g>
<g >
<title>schedule (395,305 ms, 5.71%)</title><rect x="1101.2" y="85" width="67.4" height="15.0" fill="rgb(95,95,210)" rx="2" ry="2" />
<text  x="1104.22" y="95.5" >schedule</text>
</g>
<g >
<title>walk_component (31,283 ms, 0.45%)</title><rect x="98.7" y="149" width="5.3" height="15.0" fill="rgb(96,96,193)" rx="2" ry="2" />
<text  x="101.67" y="159.5" ></text>
</g>
<g >
<title>__schedule (53,248 ms, 0.77%)</title><rect x="10.0" y="149" width="9.1" height="15.0" fill="rgb(85,85,234)" rx="2" ry="2" />
<text  x="13.00" y="159.5" ></text>
</g>
<g >
<title>path_openat (5,219,349 ms, 75.42%)</title><rect x="133.9" y="181" width="889.9" height="15.0" fill="rgb(94,94,193)" rx="2" ry="2" />
<text  x="136.86" y="191.5" >path_openat</text>
</g>
<g >
<title>filename_lookup (945 ms, 0.01%)</title><rect x="133.7" y="181" width="0.2" height="15.0" fill="rgb(116,116,196)" rx="2" ry="2" />
<text  x="136.70" y="191.5" ></text>
</g>
<g >
<title>walk_component (2,026,411 ms, 29.28%)</title><rect x="545.6" y="149" width="345.5" height="15.0" fill="rgb(81,81,203)" rx="2" ry="2" />
<text  x="548.55" y="159.5" >walk_component</text>
</g>
<g >
<title>rwsem_down_read_slowpath (203,383 ms, 2.94%)</title><rect x="64.0" y="85" width="34.7" height="15.0" fill="rgb(82,82,210)" rx="2" ry="2" />
<text  x="66.99" y="95.5" >rw..</text>
</g>
<g >
<title>finish_task_switch.isra.0 (5,939 ms, 0.09%)</title><rect x="890.1" y="85" width="1.0" height="15.0" fill="rgb(114,114,242)" rx="2" ry="2" />
<text  x="893.07" y="95.5" ></text>
</g>
<g >
<title>finish_task_switch.isra.0 (395,305 ms, 5.71%)</title><rect x="1101.2" y="53" width="67.4" height="15.0" fill="rgb(91,91,227)" rx="2" ry="2" />
<text  x="1104.22" y="63.5" >finish_..</text>
</g>
<g >
<title>do_sys_openat2 (960,082 ms, 13.87%)</title><rect x="1023.8" y="213" width="163.7" height="15.0" fill="rgb(94,94,191)" rx="2" ry="2" />
<text  x="1026.82" y="223.5" >do_sys_openat2</text>
</g>
<g >
<title>lookup_fast (2,020,317 ms, 29.19%)</title><rect x="545.6" y="133" width="344.5" height="15.0" fill="rgb(88,88,234)" rx="2" ry="2" />
<text  x="548.58" y="143.5" >lookup_fast</text>
</g>
<g >
<title>kernfs_dop_revalidate (203,383 ms, 2.94%)</title><rect x="64.0" y="101" width="34.7" height="15.0" fill="rgb(131,131,213)" rx="2" ry="2" />
<text  x="66.99" y="111.5" >ke..</text>
</g>
<g >
<title>__x64_sys_openat2 (5,219,349 ms, 75.42%)</title><rect x="133.9" y="229" width="889.9" height="15.0" fill="rgb(88,88,195)" rx="2" ry="2" />
<text  x="136.86" y="239.5" >__x64_sys_openat2</text>
</g>
<g >
<title>entry_SYSCALL_64_after_hwframe (6,920,337 ms, 100.00%)</title><rect x="10.0" y="261" width="1180.0" height="15.0" fill="rgb(114,114,223)" rx="2" ry="2" />
<text  x="13.00" y="271.5" >entry_SYSCALL_64_after_hwframe</text>
</g>
<g >
<title>finish_task_switch.isra.0 (55,626 ms, 0.80%)</title><rect x="1178.0" y="69" width="9.5" height="15.0" fill="rgb(84,84,212)" rx="2" ry="2" />
<text  x="1181.04" y="79.5" ></text>
</g>
<g >
<title>kernfs_iop_permission (55,626 ms, 0.80%)</title><rect x="1178.0" y="133" width="9.5" height="15.0" fill="rgb(89,89,240)" rx="2" ry="2" />
<text  x="1181.04" y="143.5" ></text>
</g>
<g >
<title>__schedule (29,227 ms, 0.42%)</title><rect x="19.1" y="149" width="5.0" height="15.0" fill="rgb(124,124,191)" rx="2" ry="2" />
<text  x="22.08" y="159.5" ></text>
</g>
<g >
<title>__schedule (2,020,317 ms, 29.19%)</title><rect x="545.6" y="69" width="344.5" height="15.0" fill="rgb(103,103,227)" rx="2" ry="2" />
<text  x="548.58" y="79.5" >__schedule</text>
</g>
<g >
<title>schedule (174,129 ms, 2.52%)</title><rect x="104.0" y="165" width="29.7" height="15.0" fill="rgb(116,116,219)" rx="2" ry="2" />
<text  x="107.00" y="175.5" >sc..</text>
</g>
<g >
<title>lookup_fast (395,305 ms, 5.71%)</title><rect x="1101.2" y="133" width="67.4" height="15.0" fill="rgb(95,95,190)" rx="2" ry="2" />
<text  x="1104.22" y="143.5" >lookup_..</text>
</g>
<g >
<title>finish_task_switch.isra.0 (841 ms, 0.01%)</title><rect x="98.7" y="53" width="0.1" height="15.0" fill="rgb(135,135,217)" rx="2" ry="2" />
<text  x="101.67" y="63.5" ></text>
</g>
<g >
<title>rwsem_down_read_slowpath (29,227 ms, 0.42%)</title><rect x="19.1" y="181" width="5.0" height="15.0" fill="rgb(123,123,222)" rx="2" ry="2" />
<text  x="22.08" y="191.5" ></text>
</g>
<g >
<title>link_path_walk.part.0.constprop.0 (4,440,671 ms, 64.17%)</title><rect x="133.9" y="165" width="757.2" height="15.0" fill="rgb(94,94,231)" rx="2" ry="2" />
<text  x="136.89" y="175.5" >link_path_walk.part.0.constprop.0</text>
</g>
<g >
<title>rwsem_down_read_slowpath (53,248 ms, 0.77%)</title><rect x="10.0" y="181" width="9.1" height="15.0" fill="rgb(105,105,193)" rx="2" ry="2" />
<text  x="13.00" y="191.5" ></text>
</g>
<g >
<title>may_open (389,677 ms, 5.63%)</title><rect x="957.4" y="165" width="66.4" height="15.0" fill="rgb(81,81,215)" rx="2" ry="2" />
<text  x="960.38" y="175.5" >may_open</text>
</g>
<g >
<title>schedule (55,274 ms, 0.80%)</title><rect x="1168.6" y="117" width="9.4" height="15.0" fill="rgb(125,125,231)" rx="2" ry="2" />
<text  x="1171.62" y="127.5" ></text>
</g>
<g >
<title>rwsem_down_read_slowpath (841 ms, 0.01%)</title><rect x="98.7" y="101" width="0.1" height="15.0" fill="rgb(114,114,214)" rx="2" ry="2" />
<text  x="101.67" y="111.5" ></text>
</g>
<g >
<title>path_lookupat (945 ms, 0.01%)</title><rect x="133.7" y="165" width="0.2" height="15.0" fill="rgb(139,139,221)" rx="2" ry="2" />
<text  x="136.70" y="175.5" ></text>
</g>
<g >
<title>schedule (29,245 ms, 0.42%)</title><rect x="98.8" y="85" width="5.0" height="15.0" fill="rgb(81,81,201)" rx="2" ry="2" />
<text  x="101.81" y="95.5" ></text>
</g>
<g >
<title>path_openat (960,082 ms, 13.87%)</title><rect x="1023.8" y="181" width="163.7" height="15.0" fill="rgb(130,130,220)" rx="2" ry="2" />
<text  x="1026.82" y="191.5" >path_openat</text>
</g>
<g >
<title>lookup_fast (388,836 ms, 5.62%)</title><rect x="891.1" y="165" width="66.3" height="15.0" fill="rgb(114,114,198)" rx="2" ry="2" />
<text  x="894.08" y="175.5" >lookup_..</text>
</g>
<g >
<title>kernfs_dop_revalidate (395,305 ms, 5.71%)</title><rect x="1101.2" y="117" width="67.4" height="15.0" fill="rgb(128,128,211)" rx="2" ry="2" />
<text  x="1104.22" y="127.5" >kernfs_..</text>
</g>
<g >
<title>do_filp_open (960,082 ms, 13.87%)</title><rect x="1023.8" y="197" width="163.7" height="15.0" fill="rgb(82,82,244)" rx="2" ry="2" />
<text  x="1026.82" y="207.5" >do_filp_open</text>
</g>
<g >
<title>finish_task_switch.isra.0 (29,227 ms, 0.42%)</title><rect x="19.1" y="133" width="5.0" height="15.0" fill="rgb(128,128,192)" rx="2" ry="2" />
<text  x="22.08" y="143.5" ></text>
</g>
<g >
<title>rwsem_down_read_slowpath (174,129 ms, 2.52%)</title><rect x="104.0" y="181" width="29.7" height="15.0" fill="rgb(137,137,216)" rx="2" ry="2" />
<text  x="107.00" y="191.5" >rw..</text>
</g>
<g >
<title>__sys_recvfrom (14,487 ms, 0.21%)</title><rect x="1187.5" y="213" width="2.5" height="15.0" fill="rgb(90,90,236)" rx="2" ry="2" />
<text  x="1190.53" y="223.5" ></text>
</g>
<g >
<title>finish_task_switch.isra.0 (203,383 ms, 2.94%)</title><rect x="64.0" y="37" width="34.7" height="15.0" fill="rgb(101,101,230)" rx="2" ry="2" />
<text  x="66.99" y="47.5" >fi..</text>
</g>
<g >
<title>__schedule (203,383 ms, 2.94%)</title><rect x="64.0" y="53" width="34.7" height="15.0" fill="rgb(91,91,205)" rx="2" ry="2" />
<text  x="66.99" y="63.5" >__..</text>
</g>
<g >
<title>schedule (841 ms, 0.01%)</title><rect x="98.7" y="85" width="0.1" height="15.0" fill="rgb(95,95,230)" rx="2" ry="2" />
<text  x="101.67" y="95.5" ></text>
</g>
<g >
<title>kubelet (6,920,337 ms, 100.00%)</title><rect x="10.0" y="277" width="1180.0" height="15.0" fill="rgb(119,119,231)" rx="2" ry="2" />
<text  x="13.00" y="287.5" >kubelet</text>
</g>
<g >
<title>lookup_fast (203,383 ms, 2.94%)</title><rect x="64.0" y="117" width="34.7" height="15.0" fill="rgb(136,136,201)" rx="2" ry="2" />
<text  x="66.99" y="127.5" >lo..</text>
</g>
<g >
<title>vfs_statx (498,048 ms, 7.20%)</title><rect x="19.1" y="213" width="84.9" height="15.0" fill="rgb(101,101,201)" rx="2" ry="2" />
<text  x="22.08" y="223.5" >vfs_statx</text>
</g>
<g >
<title>lookup_fast (55,274 ms, 0.80%)</title><rect x="1168.6" y="165" width="9.4" height="15.0" fill="rgb(80,80,194)" rx="2" ry="2" />
<text  x="1171.62" y="175.5" ></text>
</g>
<g >
<title>schedule_preempt_disabled (14,487 ms, 0.21%)</title><rect x="1187.5" y="149" width="2.5" height="15.0" fill="rgb(96,96,212)" rx="2" ry="2" />
<text  x="1190.53" y="159.5" ></text>
</g>
<g >
<title>user_path_at_empty (468,821 ms, 6.77%)</title><rect x="24.1" y="197" width="79.9" height="15.0" fill="rgb(94,94,204)" rx="2" ry="2" />
<text  x="27.06" y="207.5" >user_path..</text>
</g>
<g >
<title>finish_task_switch.isra.0 (2,020,317 ms, 29.19%)</title><rect x="545.6" y="53" width="344.5" height="15.0" fill="rgb(134,134,233)" rx="2" ry="2" />
<text  x="548.58" y="63.5" >finish_task_switch.isra.0</text>
</g>
<g >
<title>kernfs_dop_revalidate (2,020,317 ms, 29.19%)</title><rect x="545.6" y="117" width="344.5" height="15.0" fill="rgb(112,112,198)" rx="2" ry="2" />
<text  x="548.58" y="127.5" >kernfs_dop_revalidate</text>
</g>
<g >
<title>link_path_walk.part.0.constprop.0 (437,538 ms, 6.32%)</title><rect x="24.1" y="149" width="74.6" height="15.0" fill="rgb(105,105,221)" rx="2" ry="2" />
<text  x="27.06" y="159.5" >link_pat..</text>
</g>
<g >
<title>inode_permission (389,677 ms, 5.63%)</title><rect x="957.4" y="149" width="66.4" height="15.0" fill="rgb(125,125,226)" rx="2" ry="2" />
<text  x="960.38" y="159.5" >inode_p..</text>
</g>
<g >
<title>kernfs_iop_lookup (841 ms, 0.01%)</title><rect x="98.7" y="117" width="0.1" height="15.0" fill="rgb(124,124,220)" rx="2" ry="2" />
<text  x="101.67" y="127.5" ></text>
</g>
<g >
<title>walk_component (395,305 ms, 5.71%)</title><rect x="1101.2" y="149" width="67.4" height="15.0" fill="rgb(109,109,202)" rx="2" ry="2" />
<text  x="1104.22" y="159.5" >walk_co..</text>
</g>
<g >
<title>__do_sys_newfstat (53,248 ms, 0.77%)</title><rect x="10.0" y="229" width="9.1" height="15.0" fill="rgb(120,120,220)" rx="2" ry="2" />
<text  x="13.00" y="239.5" ></text>
</g>
<g >
<title>finish_task_switch.isra.0 (174,129 ms, 2.52%)</title><rect x="104.0" y="133" width="29.7" height="15.0" fill="rgb(93,93,226)" rx="2" ry="2" />
<text  x="107.00" y="143.5" >fi..</text>
</g>
<g >
<title>finish_task_switch.isra.0 (234,135 ms, 3.38%)</title><rect x="24.1" y="53" width="39.9" height="15.0" fill="rgb(117,117,235)" rx="2" ry="2" />
<text  x="27.06" y="63.5" >fin..</text>
</g>
<g >
<title>schedule (452,970 ms, 6.55%)</title><rect x="1023.9" y="101" width="77.2" height="15.0" fill="rgb(93,93,218)" rx="2" ry="2" />
<text  x="1026.89" y="111.5" >schedule</text>
</g>
<g >
<title>do_syscall_64 (6,920,337 ms, 100.00%)</title><rect x="10.0" y="245" width="1180.0" height="15.0" fill="rgb(80,80,239)" rx="2" ry="2" />
<text  x="13.00" y="255.5" >do_syscall_64</text>
</g>
<g >
<title>schedule (1,198 ms, 0.02%)</title><rect x="103.8" y="117" width="0.2" height="15.0" fill="rgb(133,133,223)" rx="2" ry="2" />
<text  x="106.80" y="127.5" ></text>
</g>
<g >
<title>do_filp_open (5,219,349 ms, 75.42%)</title><rect x="133.9" y="197" width="889.9" height="15.0" fill="rgb(120,120,211)" rx="2" ry="2" />
<text  x="136.86" y="207.5" >do_filp_open</text>
</g>
<g >
<title>vfs_fstat (53,248 ms, 0.77%)</title><rect x="10.0" y="213" width="9.1" height="15.0" fill="rgb(138,138,192)" rx="2" ry="2" />
<text  x="13.00" y="223.5" ></text>
</g>
<g >
<title>__schedule (389,677 ms, 5.63%)</title><rect x="957.4" y="85" width="66.4" height="15.0" fill="rgb(94,94,199)" rx="2" ry="2" />
<text  x="960.38" y="95.5" >__sched..</text>
</g>
</g>
</svg>
